<?xml version="1.0" standalone="no"?>
<!DOCTYPE svg PUBLIC "-//W3C//DTD SVG 20010904//EN"
 "http://www.w3.org/TR/2001/REC-SVG-20010904/DTD/svg10.dtd">
<svg version="1.0" xmlns="http://www.w3.org/2000/svg"
 width="540.000000pt" height="427.000000pt" viewBox="0 0 540.000000 427.000000"
 preserveAspectRatio="xMidYMid meet">
<g transform="translate(0.000000,427.000000) scale(0.100000,-0.100000)"
fill="#000000" stroke="none">
<path d="M2290 3706 c0 -2 7 -7 16 -10 8 -3 12 -2 9 4 -6 10 -25 14 -25 6z"/>
<path d="M2386 3697 c3 -10 9 -15 12 -12 3 3 0 11 -7 18 -10 9 -11 8 -5 -6z"/>
<path d="M2350 3686 c0 -2 7 -7 16 -10 8 -3 12 -2 9 4 -6 10 -25 14 -25 6z"/>
<path d="M1650 3662 c-19 -9 -45 -32 -57 -51 l-23 -34 0 -1367 0 -1367 23 -34
c44 -66 60 -69 367 -69 151 0 291 5 311 10 19 5 48 24 65 41 l29 30 0 1389 0
1388 -25 27 c-48 52 -66 55 -372 55 -249 0 -287 -2 -318 -18z m606 -9 c-4 -4
8 -14 26 -23 18 -8 38 -26 45 -40 16 -32 19 -2745 3 -2755 -6 -4 -8 -10 -6
-14 3 -4 -8 -15 -23 -24 -24 -14 -69 -16 -327 -17 -184 -1 -309 2 -324 8 -14
6 -21 11 -16 11 6 1 1 7 -10 15 -19 14 -19 43 -24 1384 -3 754 -2 1368 3 1365
4 -2 7 4 7 15 0 10 12 29 26 43 l26 24 271 3 c238 2 310 5 326 11 2 0 1 -2 -3
-6z"/>
<path d="M2713 2995 c-18 -8 -42 -29 -53 -47 -20 -33 -20 -48 -20 -1071 0
-1133 -3 -1072 57 -1113 26 -18 50 -19 338 -19 341 0 342 0 382 62 17 25 18
90 18 1068 0 986 -1 1042 -18 1068 -10 16 -32 37 -50 47 -30 19 -52 20 -327
20 -231 -1 -302 -4 -327 -15z m626 -26 c17 -6 31 -16 31 -22 0 -6 3 -7 7 -4
12 12 30 -39 27 -78 -1 -22 -2 -494 -3 -1049 -1 -555 -4 -1006 -8 -1003 -3 4
-14 -2 -24 -14 -17 -19 -28 -20 -331 -20 l-313 0 -28 33 -28 33 1 1039 c0 844
3 1042 14 1057 7 10 16 16 19 12 4 -3 7 -1 7 5 0 17 35 19 326 21 175 0 282
-3 303 -10z"/>
<path d="M584 2200 c-35 -14 -72 -67 -79 -113 -3 -23 -5 -314 -3 -647 3 -559
4 -608 21 -633 40 -62 41 -62 382 -62 288 0 312 1 338 19 59 40 57 18 57 713
0 622 -1 639 -20 671 -36 59 -57 62 -382 61 -161 0 -302 -4 -314 -9z m337 -20
c290 -2 332 -7 307 -37 -12 -15 -11 -15 11 -4 15 8 21 9 17 2 -4 -6 -2 -11 4
-11 7 0 10 -194 10 -651 l-1 -651 -29 -25 -30 -25 -304 0 c-210 0 -309 4 -318
12 -7 6 -21 16 -31 23 -17 11 -18 50 -18 650 0 350 3 642 7 649 5 7 2 8 -7 3
-8 -4 1 8 20 28 19 20 39 33 47 30 8 -3 14 0 14 7 0 6 4 9 8 6 5 -3 137 -6
293 -6z"/>
<path d="M1320 2155 c0 -5 5 -17 10 -25 5 -8 10 -10 10 -5 0 6 -5 17 -10 25
-5 8 -10 11 -10 5z"/>
<path d="M3425 781 c-3 -5 -2 -12 3 -15 5 -3 9 1 9 9 0 17 -3 19 -12 6z"/>
<path d="M2380 771 c0 -6 4 -13 10 -16 6 -3 7 1 4 9 -7 18 -14 21 -14 7z"/>
<path d="M2748 693 c7 -3 16 -2 19 1 4 3 -2 6 -13 5 -11 0 -14 -3 -6 -6z"/>
</g>
</svg>
