<?xml version="1.0" standalone="no"?>
<!DOCTYPE svg PUBLIC "-//W3C//DTD SVG 20010904//EN"
 "http://www.w3.org/TR/2001/REC-SVG-20010904/DTD/svg10.dtd">
<svg version="1.0" xmlns="http://www.w3.org/2000/svg"
 width="600.000000pt" height="411.000000pt" viewBox="0 0 600.000000 411.000000"
 preserveAspectRatio="xMidYMid meet">
<g transform="translate(0.000000,411.000000) scale(0.100000,-0.100000)"
fill="#000000" stroke="none">
<path d="M1864 3301 c-22 -10 -56 -37 -77 -61 -40 -47 -56 -104 -78 -272 -11
-86 -10 -101 5 -142 33 -86 85 -127 188 -146 100 -19 213 38 251 127 23 53 59
282 51 323 -27 145 -202 233 -340 171z m166 -24 c8 -2 25 -8 36 -15 12 -6 24
-9 28 -7 3 3 4 2 1 -2 -3 -3 10 -17 27 -30 18 -12 28 -23 24 -23 -5 0 -2 -7 5
-16 7 -9 15 -23 17 -33 4 -21 2 -132 -3 -140 -2 -4 -6 -34 -10 -66 -10 -89
-23 -131 -52 -165 -35 -42 -108 -77 -158 -75 -57 2 -115 16 -115 26 0 5 -6 9
-12 9 -17 0 -51 37 -73 80 -21 40 -17 138 10 253 9 37 13 73 9 79 -5 7 -2 8 6
3 10 -6 12 -4 7 8 -4 12 6 29 31 54 20 20 30 33 22 28 -9 -5 -12 -5 -7 1 5 5
12 9 15 10 4 0 18 5 32 11 14 6 32 12 40 15 14 5 84 2 120 -5z"/>
<path d="M1889 3240 c-65 -34 -92 -84 -103 -190 -1 -14 -6 -36 -10 -50 -12
-44 -14 -112 -4 -148 11 -39 75 -105 94 -98 7 3 14 1 16 -5 5 -15 87 -22 103
-9 8 7 15 9 15 4 0 -4 7 1 16 12 8 10 12 12 8 4 -12 -25 57 43 71 70 19 38 48
234 42 287 -2 25 -11 49 -18 54 -8 5 -10 9 -5 9 18 0 -30 43 -69 61 -51 24
-110 23 -156 -1z m125 -21 c22 -6 52 -25 68 -41 34 -36 35 -66 11 -222 -14
-94 -20 -114 -46 -142 -35 -41 -76 -53 -136 -42 -59 11 -84 29 -106 74 -17 37
-17 42 3 168 23 138 35 166 85 196 36 23 65 25 121 9z"/>
<path d="M3366 3305 c-51 -18 -112 -79 -132 -132 -19 -50 -16 -120 12 -272 13
-73 24 -102 48 -134 60 -79 161 -108 268 -78 93 26 158 111 158 207 0 66 -36
267 -54 302 -52 101 -184 148 -300 107z m213 -53 c24 -18 40 -32 35 -32 -5 0
-4 -4 2 -8 22 -15 45 -80 58 -167 3 -16 8 -46 11 -65 16 -90 13 -127 -15 -172
-43 -69 -100 -98 -197 -103 -29 -1 -53 2 -53 6 0 5 -9 9 -21 9 -11 0 -38 18
-60 40 -22 22 -37 40 -34 40 3 0 -1 10 -9 23 -24 39 -59 278 -45 315 5 12 6
22 3 22 -4 0 -1 6 5 13 6 8 9 17 6 20 -3 4 -2 5 1 3 3 -2 21 12 39 33 18 20
43 37 56 38 12 1 26 6 30 10 5 5 39 8 77 8 59 -2 73 -6 111 -33z"/>
<path d="M3410 3251 c-49 -16 -90 -42 -90 -57 0 -8 -5 -12 -10 -9 -6 4 -10 3
-9 -2 1 -4 -3 -21 -9 -36 -18 -42 -17 -54 22 -284 2 -12 18 -37 35 -55 17 -18
31 -36 31 -39 0 -3 18 -14 39 -24 45 -20 81 -17 151 12 34 14 65 52 80 96 11
34 3 127 -17 212 -3 11 -6 31 -7 45 -5 51 -63 127 -107 139 -29 9 -85 10 -109
2z m120 -42 c48 -27 58 -50 81 -174 25 -132 24 -176 -2 -209 -60 -77 -195 -77
-246 0 -18 28 -52 203 -53 271 0 100 126 165 220 112z"/>
<path d="M3653 3297 c0 -8 6 -14 14 -14 9 0 10 4 2 14 -6 7 -12 13 -14 13 -1
0 -2 -6 -2 -13z"/>
<path d="M2220 3201 c0 -6 4 -13 10 -16 6 -3 7 1 4 9 -7 18 -14 21 -14 7z"/>
<path d="M2665 3187 c-28 -44 -94 -270 -84 -289 12 -23 46 -31 109 -26 27 1
50 2 50 1 0 -2 -16 -49 -35 -105 -39 -117 -41 -130 -19 -152 17 -18 32 -20 52
-7 13 8 112 287 112 315 0 34 -31 48 -98 44 -35 -2 -65 -1 -65 2 0 3 12 44 27
91 35 115 34 129 -11 143 -17 5 -26 1 -38 -17z m42 -24 c1 -19 -14 -88 -24
-113 -38 -96 -28 -114 65 -115 69 0 70 0 67 -25 -6 -49 -77 -245 -96 -265 -19
-19 -19 -19 -19 0 0 11 14 58 31 105 39 109 40 115 24 137 -10 14 -28 18 -77
20 l-63 2 2 40 c1 22 8 50 15 63 7 13 13 30 14 38 3 36 26 100 35 100 6 0 8 4
5 9 -4 5 0 12 6 14 7 3 13 6 14 6 0 1 1 -7 1 -16z"/>
<path d="M3731 3084 c0 -11 3 -14 6 -6 3 7 2 16 -1 19 -3 4 -6 -2 -5 -13z"/>
<path d="M1605 2727 c-40 -29 -61 -54 -84 -102 -10 -22 -67 -138 -125 -257
-110 -226 -120 -259 -95 -325 23 -61 109 -122 173 -123 l28 0 -4 -87 c-4 -67
-16 -124 -52 -238 -25 -82 -53 -175 -62 -205 -9 -30 -36 -118 -59 -195 -73
-234 -85 -281 -85 -318 0 -137 163 -232 289 -167 69 35 91 74 165 292 38 112
86 252 107 312 22 60 39 118 39 129 0 10 4 17 9 15 5 -1 59 -51 120 -110 l111
-107 0 -206 c0 -237 6 -260 82 -310 78 -52 179 -47 247 11 68 59 71 72 71 365
0 154 -4 269 -10 285 -6 15 -65 114 -130 219 l-120 191 0 177 0 177 188 0
c203 0 250 10 285 60 l16 23 29 -30 c41 -45 86 -53 283 -53 l176 0 6 -172 c4
-115 2 -179 -5 -192 -6 -12 -65 -109 -132 -216 l-121 -195 0 -271 0 -271 30
-48 c71 -115 232 -129 327 -28 44 46 48 72 48 286 l0 202 112 106 c104 98 114
105 122 85 4 -11 55 -158 112 -325 104 -304 119 -339 158 -374 76 -67 215 -60
283 14 28 31 53 90 53 127 0 16 -29 125 -65 243 -36 118 -90 299 -121 404 -30
104 -58 193 -61 199 -3 5 -9 51 -12 102 l-6 92 44 6 c104 14 171 87 171 186 0
44 -15 80 -126 303 -69 138 -138 265 -152 280 -35 38 -85 64 -90 48 -2 -6 -15
-25 -29 -41 l-24 -29 25 -7 c15 -3 38 -20 53 -38 38 -45 253 -486 253 -519 0
-38 -25 -73 -62 -86 -19 -7 -127 -11 -275 -11 -282 0 -302 5 -303 72 0 54 15
58 203 58 140 0 177 3 195 16 12 8 22 22 22 31 0 24 -138 270 -155 277 -21 8
-44 -3 -56 -26 -8 -15 -1 -37 38 -111 l49 -92 -131 3 c-119 3 -134 1 -175 -20
-114 -59 -111 -221 6 -278 36 -18 61 -20 237 -20 l197 0 0 -78 c0 -94 43 -253
225 -838 19 -61 35 -122 35 -134 0 -12 -15 -37 -34 -56 -27 -27 -42 -34 -74
-34 -42 0 -83 25 -103 62 -11 20 -159 446 -220 632 -32 99 -43 116 -70 116
-11 0 -88 -66 -179 -152 l-160 -151 0 -221 c-1 -158 -4 -225 -13 -236 -54 -70
-159 -66 -196 7 -7 14 -11 107 -11 270 l0 249 32 50 c17 27 76 121 130 209
l98 159 -6 403 c-6 365 -5 404 10 428 9 14 12 25 7 25 -6 0 -26 13 -44 30
l-34 29 -94 -109 -94 -109 -113 -1 c-124 0 -166 -12 -202 -58 l-20 -25 -20 25
c-35 46 -78 58 -202 59 l-113 0 -94 109 -93 109 -38 -32 c-30 -25 -36 -35 -29
-49 5 -9 9 -198 9 -426 l0 -409 79 -129 c43 -71 101 -167 130 -213 l51 -84 0
-250 0 -249 -34 -34 c-26 -26 -42 -34 -70 -34 -44 0 -91 22 -106 49 -6 12 -10
107 -10 236 l0 217 -33 32 c-220 213 -290 276 -306 276 -10 0 -24 -7 -31 -15
-12 -14 -83 -216 -202 -575 -61 -183 -88 -220 -158 -220 -34 0 -48 6 -76 34
-19 19 -34 44 -34 56 0 23 35 147 115 405 119 385 145 487 145 568 l0 77 193
0 c180 0 196 1 237 23 48 24 90 88 90 137 0 49 -42 113 -90 138 -41 21 -56 23
-173 20 -70 -2 -127 -2 -127 -2 0 1 20 38 45 82 49 88 56 125 25 142 -35 19
-56 -5 -125 -135 -71 -134 -77 -167 -33 -178 13 -3 97 -6 187 -6 182 0 194 -4
194 -62 0 -21 -7 -38 -22 -51 -21 -16 -45 -18 -271 -18 -150 0 -259 4 -278 11
-36 12 -62 48 -62 83 0 14 56 139 124 278 110 227 127 255 158 272 l36 19 -27
38 c-14 21 -28 38 -31 38 -3 0 -18 -10 -35 -22z m2209 -29 c-3 -4 2 -8 10 -8
9 0 27 -23 42 -52 15 -29 29 -55 33 -58 3 -3 7 -12 9 -20 2 -8 14 -32 28 -52
13 -21 22 -38 19 -38 -7 0 24 -58 45 -84 8 -10 14 -21 14 -25 -1 -3 3 -17 9
-31 6 -14 9 -32 8 -40 -2 -8 1 -12 5 -7 12 11 66 -113 71 -164 4 -32 0 -56
-13 -80 -10 -19 -17 -37 -16 -42 1 -4 -1 -6 -5 -5 -5 0 -28 -8 -53 -20 -25
-11 -57 -23 -72 -26 -45 -8 -48 -14 -48 -91 0 -75 8 -113 55 -265 14 -47 31
-103 36 -125 6 -22 15 -48 20 -58 5 -10 7 -22 3 -28 -3 -5 1 -20 8 -32 8 -12
23 -53 33 -92 10 -38 21 -74 24 -80 3 -5 6 -12 6 -15 5 -32 29 -127 35 -139
29 -58 34 -78 33 -129 -1 -72 -4 -92 -15 -92 -4 0 -8 -6 -8 -14 0 -14 -74 -56
-98 -56 -7 0 -12 -4 -12 -9 0 -11 -92 4 -127 21 -29 14 -87 103 -78 119 4 5 1
9 -5 9 -6 0 -8 4 -5 10 3 6 2 10 -2 10 -5 0 -10 11 -11 25 -1 14 -8 38 -16 53
-7 15 -17 42 -21 59 -3 18 -11 35 -16 38 -5 4 -9 16 -9 29 0 12 -3 26 -7 30
-4 3 -8 12 -9 19 -3 16 -23 71 -46 129 -10 26 -18 53 -18 61 0 23 -43 120 -61
138 -16 16 -21 13 -85 -44 -38 -34 -93 -85 -122 -113 l-54 -53 -2 -209 c-3
-210 -13 -272 -43 -272 -6 0 -15 -5 -19 -12 -4 -7 -3 -8 4 -4 7 4 12 5 12 3 0
-14 -85 -44 -131 -45 -68 -3 -124 27 -152 80 -17 35 -19 60 -18 304 1 248 2
269 21 298 10 17 33 56 49 87 17 31 36 63 43 71 13 14 20 25 60 97 11 20 24
38 28 41 5 3 20 28 34 57 26 50 26 53 20 224 -4 126 -9 178 -19 188 -10 11
-57 14 -208 15 -187 1 -197 2 -224 23 -15 13 -40 30 -55 38 -26 14 -29 14 -57
-14 -44 -43 -86 -51 -276 -51 -93 0 -177 -5 -185 -10 -8 -5 -11 -10 -7 -10 5
0 5 -6 0 -12 -4 -7 -9 -88 -10 -181 -3 -140 -1 -173 13 -200 9 -17 20 -34 23
-37 12 -10 31 -50 31 -64 0 -8 5 -18 12 -22 7 -5 8 -2 3 7 -5 8 -5 11 -1 7 4
-3 8 -10 9 -15 0 -4 22 -40 49 -80 26 -39 48 -76 48 -81 0 -6 4 -12 9 -14 5
-2 21 -27 35 -56 l27 -54 -1 -254 c0 -165 -4 -264 -12 -282 -6 -15 -10 -31 -9
-37 2 -5 -1 -7 -5 -2 -4 4 -16 -5 -26 -20 -10 -16 -18 -24 -18 -19 0 4 -12 1
-26 -9 -17 -11 -42 -16 -77 -14 -65 3 -88 11 -118 41 -46 46 -51 71 -54 286
l-3 203 -38 44 c-21 25 -44 45 -51 45 -7 0 -12 4 -11 9 2 4 -17 25 -41 45 -24
20 -52 48 -63 61 -24 31 -53 32 -73 2 -13 -21 -51 -121 -53 -140 0 -4 -12 -38
-27 -76 -14 -38 -28 -81 -31 -96 -3 -16 -9 -36 -15 -46 -5 -11 -19 -49 -30
-86 -28 -93 -72 -207 -81 -211 -5 -2 -8 -10 -8 -18 0 -8 -11 -20 -25 -26 -14
-6 -25 -16 -25 -21 0 -6 -2 -8 -5 -5 -3 3 -25 0 -48 -7 -37 -11 -48 -10 -97 8
-59 22 -70 30 -90 67 -24 45 -29 90 -14 133 8 23 28 89 44 147 17 58 42 139
56 180 29 83 43 133 48 168 2 13 8 28 15 35 6 6 11 23 11 38 0 14 7 46 16 70
8 24 17 51 20 59 2 8 13 46 24 85 12 41 20 99 20 141 0 76 -8 87 -68 99 -66
12 -102 37 -128 88 -27 50 -20 88 36 203 29 60 52 113 51 118 -1 5 2 12 7 15
4 3 39 68 76 144 38 76 77 144 87 151 10 7 17 15 14 18 -3 3 4 5 15 4 27 -1
25 -15 -10 -53 -16 -17 -26 -34 -23 -37 4 -3 1 -6 -6 -6 -7 0 -9 -4 -6 -10 3
-5 1 -10 -4 -10 -6 0 -11 -5 -11 -10 0 -6 -46 -104 -103 -218 -57 -114 -102
-213 -100 -219 2 -6 -1 -14 -6 -17 -7 -4 -2 -24 12 -52 16 -35 32 -50 64 -65
39 -18 64 -19 304 -17 l261 3 24 30 c46 57 22 135 -47 155 -18 5 -100 8 -184
7 l-151 -2 4 25 c3 14 11 34 19 46 7 11 11 23 8 26 -3 3 1 11 10 18 8 7 15 17
15 22 0 19 65 118 77 118 20 0 16 -16 -29 -101 -61 -117 -40 -134 149 -127 57
2 103 0 103 -5 0 -4 3 -6 8 -3 10 6 34 -13 59 -50 19 -27 26 -85 13 -114 -1
-3 -2 -9 -1 -13 1 -5 -3 -6 -9 -2 -9 6 -14 -7 -11 -28 0 -4 -2 -6 -6 -5 -5 1
-22 -5 -38 -14 -25 -13 -66 -17 -219 -18 -119 0 -194 -5 -205 -12 -15 -9 -19
-26 -20 -91 -1 -44 -3 -83 -5 -86 -2 -3 -7 -22 -10 -41 -3 -19 -14 -62 -25
-95 -11 -32 -17 -63 -14 -69 3 -5 1 -6 -5 -2 -8 5 -12 -2 -12 -18 0 -14 -6
-43 -14 -63 -7 -21 -19 -56 -25 -78 -6 -22 -27 -92 -47 -155 -19 -63 -37 -119
-38 -125 -2 -5 -11 -37 -21 -70 -10 -33 -20 -64 -21 -70 -1 -5 -8 -31 -15 -57
-12 -44 -11 -52 9 -93 12 -25 29 -45 37 -45 8 0 15 -5 15 -11 0 -6 7 -8 16 -5
8 3 12 2 9 -4 -4 -6 13 -10 42 -10 39 0 56 6 83 27 31 27 87 129 76 141 -3 3
-2 10 4 17 5 6 23 52 39 101 16 49 35 105 42 124 13 38 20 59 25 75 6 20 87
261 97 288 15 42 41 33 114 -40 37 -38 61 -59 53 -48 -8 11 26 -20 75 -70 l90
-90 0 -210 c0 -159 3 -216 14 -234 21 -38 60 -73 73 -65 6 4 8 3 5 -3 -4 -7
14 -11 53 -11 45 0 63 4 69 17 5 9 13 14 18 12 4 -2 18 14 30 35 21 37 22 49
23 284 0 186 -3 251 -13 270 -30 55 -60 106 -79 133 -11 15 -16 27 -12 27 4 0
-2 10 -13 23 -11 12 -31 41 -45 65 -13 23 -28 39 -33 35 -4 -5 -5 -3 -2 3 4 7
-3 24 -15 40 -12 15 -23 34 -25 42 -1 8 -5 18 -10 21 -4 3 -9 11 -10 18 -4 20
-2 404 2 458 2 28 1 126 -3 218 -7 167 -7 168 16 183 12 8 21 11 20 6 -2 -4
25 -39 59 -77 34 -39 74 -83 89 -100 14 -16 23 -23 19 -15 -5 11 -3 11 7 -1
11 -14 35 -17 131 -18 l117 0 46 -35 c44 -34 47 -35 70 -19 14 8 28 22 32 29
12 21 44 26 165 24 l109 -1 36 39 c71 75 129 142 123 142 -3 0 5 7 18 16 21
15 24 15 42 -5 11 -12 16 -21 11 -21 -5 0 -9 -174 -8 -412 1 -345 -1 -416 -13
-430 -8 -10 -12 -18 -9 -18 3 0 -23 -44 -58 -97 -35 -54 -64 -104 -64 -110 0
-7 -3 -13 -8 -13 -4 0 -13 -9 -20 -21 -11 -17 -11 -20 0 -13 7 4 1 -6 -14 -22
-61 -67 -66 -90 -73 -334 -8 -251 -3 -285 46 -340 17 -19 28 -29 23 -21 -5 11
-1 10 17 -2 55 -39 151 -8 183 59 15 32 17 65 16 233 -1 108 2 205 6 216 4 11
17 27 28 35 29 20 137 120 131 120 -3 0 10 15 30 33 52 49 66 60 94 79 l25 17
33 -82 c18 -45 35 -95 39 -112 3 -16 11 -39 18 -50 6 -11 11 -24 11 -30 1 -5
10 -35 20 -65 11 -30 18 -61 16 -69 -1 -8 2 -10 10 -5 7 4 10 3 6 -4 -4 -5 0
-23 8 -39 8 -15 27 -68 41 -118 37 -124 60 -174 92 -202 15 -12 30 -24 35 -24
4 -1 11 -2 16 -3 5 0 12 -3 15 -7 3 -3 21 -3 41 -1 25 3 48 16 75 44 22 21 40
42 41 46 6 39 5 73 -2 78 -5 3 -9 15 -9 27 0 12 -7 42 -15 67 -53 163 -85 261
-95 300 -12 47 -51 178 -78 265 -9 28 -17 55 -18 60 -1 6 -10 37 -19 70 -9 33
-16 91 -15 129 0 47 -4 76 -15 92 -15 24 -17 24 -201 24 -116 0 -193 4 -206
11 -15 8 -19 8 -14 0 14 -23 -39 11 -61 38 -51 64 -21 182 50 197 12 3 76 4
143 4 88 0 125 4 139 14 18 13 27 44 15 56 -11 11 -71 136 -70 147 0 29 20 20
39 -19 12 -24 33 -61 46 -83 42 -67 64 -120 56 -128 -5 -5 -86 -9 -180 -9
-117 0 -169 -3 -165 -10 4 -6 1 -9 -7 -6 -15 5 -30 -7 -47 -39 -28 -52 -2
-114 55 -131 48 -14 543 -16 543 -2 0 6 6 10 14 10 7 0 27 14 43 30 51 52 45
87 -42 260 -13 25 -52 102 -87 172 -36 70 -60 124 -54 120 6 -3 -9 17 -32 46
-24 29 -48 52 -53 52 -6 0 -4 6 3 13 13 15 40 19 32 5z"/>
<path d="M2212 2517 c-15 -17 -18 -257 -4 -282 10 -19 23 -20 201 -22 117 0
191 3 191 9 0 5 4 7 9 4 5 -3 12 1 15 10 3 8 10 13 15 10 13 -9 34 59 26 84
-4 12 -20 34 -35 51 -29 29 -29 29 -152 29 l-123 0 -38 38 c-20 20 -47 47 -59
60 -24 25 -32 27 -46 9z m86 -92 l41 -47 131 -1 c125 -2 133 -3 151 -26 24
-29 24 -53 0 -82 -19 -23 -23 -24 -210 -27 l-192 -3 3 136 c3 127 4 135 19
116 9 -11 35 -41 57 -66z"/>
<path d="M2567 2329 c7 -7 15 -10 18 -7 3 3 -2 9 -12 12 -14 6 -15 5 -6 -5z"/>
<path d="M3129 2469 l-57 -60 -125 -1 c-125 0 -125 0 -158 -30 -24 -23 -33
-39 -33 -63 0 -38 39 -91 72 -98 13 -2 100 -5 194 -6 220 -3 208 -12 208 164
0 180 -11 190 -101 94z m73 -94 l-3 -135 -175 0 c-137 0 -181 3 -204 15 -53
27 -48 95 7 116 15 5 78 9 140 8 128 -1 125 -3 190 83 21 26 40 48 43 48 3 0
4 -61 2 -135z"/>
<path d="M2215 2741 c-3 -5 -2 -12 3 -15 5 -3 9 1 9 9 0 17 -3 19 -12 6z"/>
<path d="M3239 2737 c6 -8 7 -18 3 -22 -4 -5 -1 -5 6 -1 10 6 10 11 1 22 -6 8
-14 14 -16 14 -3 0 0 -6 6 -13z"/>
<path d="M3700 2735 c-11 -13 -11 -18 0 -28 10 -9 11 -9 6 1 -4 7 -2 19 4 27
7 8 10 15 7 15 -2 0 -10 -7 -17 -15z"/>
<path d="M3895 2739 c-4 -6 -5 -12 -2 -15 2 -3 7 2 10 11 7 17 1 20 -8 4z"/>
<path d="M2280 2637 c0 -2 6 -10 14 -16 11 -9 16 -9 22 1 4 7 4 10 -1 6 -4 -4
-14 -3 -22 3 -7 6 -13 9 -13 6z"/>
<path d="M3740 2491 c0 -6 4 -13 10 -16 6 -3 7 1 4 9 -7 18 -14 21 -14 7z"/>
<path d="M2730 2470 c-9 -6 -10 -10 -3 -10 6 0 15 5 18 10 8 12 4 12 -15 0z"/>
<path d="M4047 2449 c4 -13 8 -18 11 -10 2 7 -1 18 -6 23 -8 8 -9 4 -5 -13z"/>
<path d="M3850 2451 c0 -6 4 -13 10 -16 6 -3 7 1 4 9 -7 18 -14 21 -14 7z"/>
<path d="M1825 2339 c-4 -6 -5 -12 -2 -15 2 -3 7 2 10 11 7 17 1 20 -8 4z"/>
<path d="M2046 2258 c3 -5 10 -6 15 -3 13 9 11 12 -6 12 -8 0 -12 -4 -9 -9z"/>
<path d="M1542 2180 c0 -14 2 -19 5 -12 2 6 2 18 0 25 -3 6 -5 1 -5 -13z"/>
<path d="M2706 2158 c3 -5 10 -6 15 -3 13 9 11 12 -6 12 -8 0 -12 -4 -9 -9z"/>
<path d="M2645 2120 c-3 -6 1 -7 9 -4 18 7 21 14 7 14 -6 0 -13 -4 -16 -10z"/>
<path d="M1365 1900 c-3 -6 1 -7 9 -4 18 7 21 14 7 14 -6 0 -13 -4 -16 -10z"/>
<path d="M2058 1893 c7 -3 16 -2 19 1 4 3 -2 6 -13 5 -11 0 -14 -3 -6 -6z"/>
<path d="M2280 1781 c0 -6 4 -13 10 -16 6 -3 7 1 4 9 -7 18 -14 21 -14 7z"/>
<path d="M3547 1619 c7 -7 15 -10 18 -7 3 3 -2 9 -12 12 -14 6 -15 5 -6 -5z"/>
<path d="M3636 1608 c3 -5 10 -6 15 -3 13 9 11 12 -6 12 -8 0 -12 -4 -9 -9z"/>
<path d="M3364 1450 c0 -13 4 -16 10 -10 7 7 7 13 0 20 -6 6 -10 3 -10 -10z"/>
<path d="M2139 1377 c6 -8 7 -18 3 -22 -4 -5 -1 -5 6 -1 10 6 10 11 1 22 -6 8
-14 14 -16 14 -3 0 0 -6 6 -13z"/>
<path d="M2901 894 c0 -11 3 -14 6 -6 3 7 2 16 -1 19 -3 4 -6 -2 -5 -13z"/>
<path d="M4145 699 c-4 -6 -5 -12 -2 -15 2 -3 7 2 10 11 7 17 1 20 -8 4z"/>
<path d="M1560 696 c0 -2 8 -10 18 -17 15 -13 16 -12 3 4 -13 16 -21 21 -21
13z"/>
</g>
</svg>
