<?xml version="1.0" standalone="no"?>
<!DOCTYPE svg PUBLIC "-//W3C//DTD SVG 20010904//EN"
 "http://www.w3.org/TR/2001/REC-SVG-20010904/DTD/svg10.dtd">
<svg version="1.0" xmlns="http://www.w3.org/2000/svg"
 width="528.000000pt" height="498.000000pt" viewBox="0 0 528.000000 498.000000"
 preserveAspectRatio="xMidYMid meet">
<g transform="translate(0.000000,498.000000) scale(0.100000,-0.100000)"
fill="#000000" stroke="none">
<path d="M485 4400 c-3 -6 1 -7 9 -4 18 7 21 14 7 14 -6 0 -13 -4 -16 -10z"/>
<path d="M516 4334 c-14 -14 -16 -77 -16 -550 0 -350 4 -542 10 -555 12 -22
59 -26 78 -7 9 9 12 88 12 293 l0 280 305 -3 c294 -2 305 -2 325 18 11 11 20
26 20 34 0 7 -25 63 -55 125 l-54 111 54 103 c59 112 63 127 39 151 -13 14
-60 16 -359 16 -299 0 -346 -2 -359 -16z m699 -24 c3 -5 -4 -29 -17 -52 -12
-24 -23 -45 -23 -48 -5 -18 -21 -49 -39 -74 -12 -19 -14 -26 -5 -21 10 6 10 3
-2 -11 -15 -18 -15 -22 4 -64 11 -25 21 -47 22 -50 1 -3 14 -32 30 -65 29 -60
39 -98 23 -89 -4 3 -8 0 -8 -6 0 -7 -89 -10 -301 -10 -239 1 -304 -1 -315 -12
-10 -10 -15 -77 -19 -278 -3 -146 -5 -271 -5 -278 0 -8 -7 -12 -15 -10 -14 3
-16 68 -18 535 -1 292 1 529 6 526 4 -2 7 1 7 6 0 14 666 15 675 1z"/>
<path d="M585 4266 c-13 -19 -15 -55 -14 -192 0 -93 5 -177 10 -186 9 -17 31
-18 268 -18 234 0 261 2 281 18 l22 18 -20 39 c-12 22 -22 47 -24 55 -2 8 -6
17 -9 20 -3 3 -12 19 -20 35 -14 29 -12 34 28 115 l44 85 -22 18 c-19 15 -48
17 -275 17 l-254 0 -15 -24z m535 -13 c0 -3 -18 -38 -40 -78 -22 -40 -40 -80
-40 -89 0 -9 18 -52 40 -96 22 -44 40 -82 40 -85 0 -3 -117 -5 -260 -5 l-260
0 0 180 0 181 260 -2 c143 0 260 -3 260 -6z"/>
<path d="M2651 4269 c-71 -21 -153 -91 -179 -155 l-12 -29 -328 -1 c-294 0
-635 -20 -704 -40 -34 -10 -34 -77 0 -88 10 -3 82 1 162 10 89 10 283 18 503
21 l357 5 1 -28 c2 -82 64 -170 149 -213 139 -69 292 -24 372 109 12 19 22 36
24 38 4 6 107 -49 178 -95 89 -57 153 -124 195 -204 28 -52 35 -77 39 -140 4
-67 1 -83 -23 -138 -64 -142 -258 -259 -507 -306 -33 -6 -36 -5 -41 22 -8 43
-62 110 -114 143 -84 54 -196 60 -282 16 -75 -39 -151 -157 -151 -235 0 -28
-1 -28 -77 -35 -109 -10 -767 -93 -827 -105 -46 -8 -51 -8 -69 16 -36 45 -61
65 -115 90 -184 86 -392 -50 -392 -256 l0 -66 -57 -45 c-116 -92 -212 -239
-247 -376 -21 -80 -21 -225 0 -295 69 -237 266 -368 607 -404 40 -5 57 -11 57
-21 0 -30 51 -113 89 -146 113 -97 280 -89 383 19 39 40 77 114 78 149 0 19 7
22 92 28 50 3 146 6 214 6 157 0 382 15 607 41 98 11 181 17 186 15 5 -3 12
-18 16 -33 15 -63 87 -134 163 -163 67 -25 127 -25 196 0 126 48 207 192 177
317 -6 26 -19 62 -28 79 -15 30 -15 32 31 110 133 226 127 436 -16 570 -27 25
-74 57 -106 72 -50 24 -69 27 -157 27 -93 0 -105 -2 -166 -32 -158 -78 -238
-247 -199 -422 13 -61 73 -197 112 -255 l25 -36 -23 -47 c-13 -25 -24 -54 -24
-64 0 -20 -9 -22 -210 -44 -184 -20 -402 -33 -671 -41 l-226 -6 -6 24 c-11 44
-73 113 -127 142 -143 78 -315 23 -390 -124 -11 -22 -20 -47 -20 -56 0 -14 -9
-16 -76 -9 -434 40 -623 350 -439 716 17 32 62 88 111 137 l83 84 31 -36 c66
-75 186 -110 282 -82 116 33 193 128 205 250 5 60 8 65 32 70 48 10 154 25
321 45 155 19 205 25 440 51 52 6 107 13 121 16 21 4 30 -3 58 -43 65 -95 180
-145 285 -123 102 21 187 98 216 198 12 37 17 42 49 48 70 11 186 45 259 76
231 96 362 261 362 454 0 200 -147 383 -404 505 l-93 44 -11 56 c-34 160 -197
262 -351 218z m167 -35 c4 -4 1 -4 -7 1 -9 5 -12 4 -7 -3 4 -7 14 -12 22 -12
29 0 124 -81 126 -107 0 -4 4 -15 9 -24 5 -9 11 -32 13 -50 2 -19 7 -41 10
-49 7 -16 103 -66 123 -63 7 0 11 -3 8 -7 -3 -5 5 -12 17 -15 13 -4 31 -14 41
-23 9 -8 17 -12 17 -7 0 4 20 -9 44 -29 24 -20 47 -36 50 -36 4 0 20 -13 38
-30 17 -16 27 -30 23 -30 -4 0 4 -9 18 -20 14 -11 36 -37 48 -58 13 -20 28
-40 33 -44 6 -4 8 -8 4 -8 -3 0 3 -24 14 -52 26 -69 25 -258 -2 -258 -4 0 -11
-7 -14 -16 -4 -10 -2 -13 7 -8 6 4 4 -2 -5 -13 -10 -11 -18 -25 -18 -31 0 -6
-10 -18 -22 -26 -12 -9 -19 -16 -16 -16 4 0 -4 -12 -17 -26 -13 -14 -25 -24
-27 -22 -6 5 -36 -27 -32 -34 2 -4 -6 -10 -18 -14 -13 -4 -25 -10 -28 -14 -13
-18 -101 -61 -111 -54 -7 4 -9 3 -6 -3 6 -10 -13 -18 -132 -57 -69 -23 -88
-27 -135 -30 -44 -3 -61 -21 -77 -80 -6 -22 -18 -46 -27 -54 -12 -10 -13 -12
-2 -7 8 4 -5 -13 -30 -38 -25 -25 -48 -43 -52 -41 -3 2 -13 -2 -21 -10 -8 -8
-17 -12 -21 -9 -3 3 -11 1 -18 -4 -8 -6 -37 -9 -68 -6 -30 3 -63 6 -72 6 -10
1 -18 6 -18 11 0 5 -3 6 -7 3 -3 -4 -15 0 -25 10 -10 9 -18 13 -18 10 0 -4 -9
2 -20 13 -11 11 -19 21 -18 23 2 2 -35 48 -65 79 -12 13 -25 17 -45 12 -15 -3
-34 -5 -42 -5 -8 0 -51 -4 -95 -9 -44 -5 -127 -14 -185 -21 -58 -6 -113 -13
-123 -15 -10 -2 -46 -6 -80 -9 -106 -11 -330 -44 -369 -55 -40 -12 -44 -18
-51 -100 -5 -53 -9 -70 -20 -85 -4 -5 -20 -28 -36 -51 -16 -22 -48 -51 -71
-63 -51 -26 -151 -34 -198 -15 -17 7 -32 10 -32 7 0 -3 -8 1 -18 10 -10 10
-22 14 -27 10 -4 -5 -5 -2 -1 5 5 7 1 12 -10 12 -10 0 -15 3 -11 6 3 3 -10 20
-29 36 -34 30 -35 30 -57 12 -12 -11 -25 -23 -29 -29 -4 -5 -8 -7 -8 -3 0 3
-14 -7 -30 -22 -17 -16 -30 -30 -30 -32 1 -2 -17 -23 -39 -47 -23 -24 -39 -46
-37 -48 2 -3 -4 -13 -15 -24 -10 -10 -19 -28 -19 -39 0 -11 -4 -20 -9 -20 -8
0 -23 -38 -26 -65 -1 -5 -7 -26 -13 -46 -18 -51 -20 -245 -3 -235 4 3 6 -6 3
-21 -4 -19 -2 -24 8 -18 8 5 11 4 7 -1 -7 -12 39 -105 60 -122 9 -6 14 -12 10
-12 -13 0 30 -37 96 -83 62 -43 170 -91 180 -80 3 2 19 -3 37 -12 18 -9 40
-13 52 -9 12 3 18 2 15 -3 -4 -6 23 -9 63 -9 74 1 91 12 105 64 6 24 14 37 51
77 12 13 20 26 17 28 -2 3 6 8 19 12 13 4 32 15 42 24 15 13 18 13 11 1 -8
-13 -7 -13 9 -1 28 23 206 16 214 -8 2 -6 8 -11 13 -11 13 0 90 -76 83 -82 -2
-3 5 -22 17 -43 l22 -37 296 6 c163 4 307 9 321 11 14 2 59 7 100 10 99 7 228
21 240 25 11 4 37 7 92 8 66 2 101 28 106 77 2 17 12 43 23 58 20 27 20 29 3
55 -10 15 -17 32 -16 39 1 6 -8 19 -20 27 -12 9 -18 16 -13 16 6 0 6 3 0 8
-14 9 -60 116 -75 172 -16 60 -14 161 5 216 15 45 22 56 62 100 12 13 19 24
16 24 -3 0 12 12 33 27 62 42 135 70 188 72 27 1 52 3 54 6 3 3 10 1 17 -5 6
-5 26 -11 45 -13 19 -3 53 -13 75 -23 22 -10 44 -17 50 -15 5 1 7 0 3 -4 -8
-8 2 -18 46 -53 16 -12 25 -22 20 -22 -4 0 1 -7 12 -16 10 -8 12 -13 4 -9 -12
5 -12 4 1 -7 50 -41 65 -211 28 -313 -39 -109 -45 -123 -56 -136 -27 -34 -61
-107 -58 -125 2 -10 4 -23 4 -27 1 -5 5 -6 10 -3 5 4 8 -5 7 -19 -2 -13 0 -22
4 -20 14 9 19 -40 10 -110 -9 -79 -17 -105 -33 -105 -6 0 -8 -3 -4 -6 8 -9
-62 -71 -103 -91 -41 -20 -180 -29 -180 -12 0 6 -7 8 -16 5 -8 -3 -12 -2 -9 4
3 6 -3 10 -14 10 -12 0 -21 3 -21 8 0 4 -14 16 -30 27 -34 22 -70 76 -70 105
0 50 -54 55 -270 25 -115 -15 -192 -20 -455 -29 -354 -12 -397 -15 -409 -25
-7 -6 -17 -7 -21 -3 -5 4 -5 2 -1 -5 3 -6 2 -14 -4 -18 -5 -3 -10 -12 -10 -20
0 -8 -5 -26 -12 -42 -6 -15 -12 -31 -12 -34 -1 -8 -56 -71 -56 -64 0 3 -6 0
-14 -7 -8 -7 -12 -16 -9 -21 2 -4 1 -6 -4 -5 -4 1 -19 -4 -33 -12 -42 -23
-145 -29 -182 -9 -13 7 -24 12 -25 11 -4 -2 -38 11 -43 18 -3 3 -18 13 -33 23
-15 10 -25 22 -22 28 4 5 -1 12 -10 15 -8 4 -20 26 -26 51 -15 57 -40 73 -131
83 -135 16 -159 20 -179 30 -11 6 -24 8 -29 5 -6 -3 -10 -2 -10 4 0 10 -68 37
-83 33 -5 -1 -6 2 -2 8 3 5 -3 10 -13 10 -11 0 -25 7 -32 15 -7 8 -17 12 -23
8 -5 -3 -8 -2 -5 3 3 5 0 15 -8 22 -8 7 -14 10 -14 7 0 -4 -12 8 -27 27 -15
18 -33 37 -40 41 -7 4 -13 15 -13 23 0 8 -5 12 -10 9 -6 -4 -9 -3 -8 2 1 4 -8
31 -21 58 -80 176 -51 391 79 580 17 25 35 45 39 45 4 0 20 17 34 37 15 21 27
34 27 30 0 -5 6 -2 14 5 8 7 30 25 49 40 33 27 34 30 33 92 0 35 2 60 5 54 3
-5 9 13 13 41 5 41 14 58 46 90 21 21 60 48 87 61 46 22 137 33 158 19 6 -3
27 -12 47 -18 20 -7 42 -18 48 -26 7 -8 17 -12 23 -8 5 3 7 2 4 -4 -7 -11 77
-95 87 -86 5 6 134 29 216 39 25 3 72 9 105 14 101 14 225 29 325 40 52 5 109
12 125 14 17 3 56 7 88 10 76 7 103 28 112 86 4 25 13 56 22 69 11 18 12 22 2
16 -8 -3 -6 0 4 8 9 8 17 17 17 20 0 12 34 47 46 47 6 0 17 6 23 13 25 30 134
47 212 32 23 -5 60 -24 77 -42 36 -35 82 -96 78 -102 -9 -14 32 -54 58 -57 14
-1 24 1 21 5 -2 5 7 7 20 5 14 -1 47 6 74 16 28 10 52 16 55 13 2 -2 15 1 28
8 12 7 32 14 42 16 11 2 28 11 38 20 10 9 28 17 39 18 12 1 24 6 27 11 4 5 19
15 35 23 15 8 27 18 27 23 0 4 5 8 10 8 16 0 49 37 42 46 -4 5 0 3 9 -4 18
-14 30 -6 22 14 -3 8 0 14 7 14 6 0 8 5 4 12 -5 7 -2 9 8 5 12 -4 15 0 13 18
-1 14 1 22 5 20 4 -3 14 3 21 12 12 14 12 16 0 8 -11 -6 -12 -5 -5 6 38 60 41
200 5 281 -36 85 -163 228 -200 228 -6 0 -11 4 -11 8 0 9 -69 51 -84 50 -5 0
-12 4 -15 9 -8 11 -63 37 -73 35 -5 -1 -8 3 -8 8 0 14 -31 9 -47 -7 -7 -6 -13
-16 -13 -22 0 -6 -5 -11 -11 -11 -5 0 -7 -4 -4 -10 3 -5 1 -10 -4 -10 -6 0
-11 -5 -11 -11 0 -14 -48 -57 -72 -65 -10 -3 -18 -9 -18 -14 0 -5 -7 -6 -17
-3 -10 4 -14 2 -10 -4 4 -6 -26 -9 -86 -9 -91 1 -93 2 -142 39 -59 46 -80 75
-100 143 -14 48 -47 99 -57 89 -3 -3 -135 -6 -294 -7 -268 -1 -341 -4 -559
-24 -127 -11 -138 -10 -140 6 -2 9 6 15 19 16 11 1 44 4 71 7 93 11 230 21
260 20 16 -1 34 2 40 6 5 5 154 9 330 9 l320 -1 23 44 c26 51 79 104 119 120
58 24 184 32 201 13z"/>
<path d="M2660 4203 c-8 -3 -26 -15 -39 -27 -14 -12 -21 -14 -16 -6 4 8 -9 -3
-29 -25 -20 -22 -41 -58 -47 -80 -15 -52 -15 -121 -1 -138 7 -8 9 -17 5 -20
-3 -4 -1 -7 5 -7 7 0 12 -6 12 -13 0 -7 9 -19 20 -27 11 -8 20 -19 20 -25 0
-6 14 -19 31 -29 22 -13 29 -14 24 -5 -7 11 -6 12 6 2 23 -19 95 -25 139 -12
22 7 40 16 40 20 0 4 16 16 36 28 19 12 32 26 29 31 -3 6 -3 10 2 10 23 0 54
162 33 175 -5 3 -10 14 -10 23 0 27 -64 93 -110 113 -40 18 -117 24 -150 12z
m143 -39 c46 -23 66 -44 89 -87 25 -51 19 -134 -14 -183 -24 -35 -106 -84
-142 -84 -82 0 -165 63 -186 140 -15 53 -2 114 32 160 46 62 153 88 221 54z"/>
<path d="M2805 4119 c-4 -6 -5 -12 -2 -15 2 -3 7 2 10 11 7 17 1 20 -8 4z"/>
<path d="M2833 3925 c0 -8 4 -12 9 -9 5 3 6 10 3 15 -9 13 -12 11 -12 -6z"/>
<path d="M2624 3900 c0 -13 4 -16 10 -10 7 7 7 13 0 20 -6 6 -10 3 -10 -10z"/>
<path d="M2493 3145 c-38 -16 -116 -92 -108 -105 3 -4 0 -10 -6 -12 -17 -6
-20 -117 -3 -156 17 -42 69 -102 103 -120 27 -15 121 -20 158 -10 57 17 103
64 134 136 18 42 19 53 9 104 -28 132 -171 214 -287 163z m138 -26 c123 -42
164 -195 78 -293 -112 -128 -318 -49 -319 122 0 123 122 210 241 171z"/>
<path d="M2451 3003 c-1 -17 16 -25 25 -12 4 7 3 9 -4 5 -5 -3 -13 0 -15 6 -4
9 -6 10 -6 1z"/>
<path d="M2449 2898 c-8 -27 -6 -38 5 -29 7 6 17 7 22 3 4 -4 2 1 -5 11 -12
16 -20 21 -22 15z"/>
<path d="M2676 2853 c-6 -14 -5 -15 5 -6 7 7 10 15 7 18 -3 3 -9 -2 -12 -12z"/>
<path d="M1057 2884 c-5 -5 -31 -12 -53 -13 -17 -1 -105 -82 -99 -91 3 -5 1
-10 -4 -12 -16 -5 -30 -119 -18 -148 5 -14 11 -32 13 -40 2 -8 15 -25 29 -37
14 -13 23 -23 18 -23 -4 0 9 -11 30 -25 20 -14 41 -23 46 -20 6 3 12 1 15 -4
8 -12 116 -13 116 -1 0 6 7 10 16 10 19 0 95 60 89 70 -3 5 1 10 8 13 16 6 37
72 37 114 0 17 -5 45 -12 64 -12 34 -58 109 -58 94 0 -5 -11 2 -25 15 -13 12
-21 28 -18 34 4 6 -1 5 -10 -2 -9 -8 -21 -10 -28 -6 -15 9 -85 15 -92 8z m133
-58 c117 -77 103 -259 -24 -317 -95 -43 -197 -5 -246 91 -18 33 -16 119 3 155
51 99 175 132 267 71z"/>
<path d="M1025 2559 c-4 -6 -5 -12 -2 -15 2 -3 7 2 10 11 7 17 1 20 -8 4z"/>
<path d="M1143 2535 c0 -8 4 -12 9 -9 5 3 6 10 3 15 -9 13 -12 11 -12 -6z"/>
<path d="M3050 2493 c-41 -7 -110 -35 -110 -44 0 -5 -6 -9 -13 -9 -8 0 -22 -9
-32 -20 -10 -11 -22 -17 -28 -13 -5 3 -7 1 -4 -4 8 -13 -17 -36 -28 -25 -5 4
-5 1 -1 -6 5 -8 0 -22 -11 -34 -12 -14 -13 -19 -3 -13 10 6 10 2 -3 -12 -25
-29 -28 -46 -26 -187 0 -10 7 -32 15 -47 8 -16 12 -29 8 -29 -3 0 1 -12 11
-26 11 -18 13 -24 4 -19 -9 6 -8 1 2 -11 9 -10 33 -49 53 -86 21 -38 45 -72
54 -78 10 -5 13 -10 8 -10 -4 0 2 -9 15 -21 13 -11 17 -17 9 -13 -8 5 -1 -8
16 -27 18 -18 43 -47 57 -62 24 -27 67 -44 67 -27 0 5 9 12 20 15 11 4 18 11
14 16 -3 6 2 9 12 7 11 -2 18 2 16 10 -1 7 9 25 22 39 14 15 23 30 20 35 -3 4
2 8 11 8 8 0 18 7 21 15 4 8 19 29 35 46 16 17 26 35 23 40 -3 5 0 9 6 9 6 0
8 5 5 10 -3 6 -1 10 4 10 6 0 11 10 11 22 0 12 3 18 7 14 4 -4 19 31 35 76 34
104 37 202 8 266 -24 52 -55 94 -64 85 -3 -3 -6 -1 -6 5 0 17 -109 85 -140 89
-14 1 -41 4 -60 7 -19 2 -46 2 -60 -1z m167 -55 c85 -40 146 -124 159 -220 8
-56 -17 -151 -65 -245 -37 -75 -196 -281 -217 -282 -14 -1 -145 163 -189 236
-114 192 -117 348 -8 456 81 82 214 104 320 55z"/>
<path d="M3014 2395 c-82 -36 -128 -116 -122 -212 7 -115 88 -193 201 -193
132 0 215 93 205 231 -5 73 -43 132 -107 166 -51 26 -127 30 -177 8z m146 -25
c14 -15 66 -44 74 -42 5 2 4 -3 -3 -12 -9 -11 -9 -16 0 -22 8 -4 9 -3 5 4 -4
7 -5 12 -2 12 3 0 13 -14 22 -31 14 -28 19 -94 11 -140 -4 -25 -67 -97 -91
-104 -62 -19 -90 -22 -119 -14 -18 5 -35 8 -38 6 -12 -4 -51 37 -76 81 -23 38
-25 51 -20 109 3 39 10 69 18 74 8 5 10 9 5 9 -6 0 3 13 19 30 15 16 32 27 37
24 4 -3 8 0 8 6 0 6 3 9 8 7 4 -3 16 -1 27 4 21 9 106 8 115 -1z"/>
<path d="M3043 2330 c-53 -24 -83 -70 -83 -128 0 -51 12 -77 53 -114 34 -31
31 -30 72 -33 48 -3 125 42 125 74 0 6 5 11 11 11 5 0 8 4 4 9 -3 5 -1 12 4
16 5 3 8 18 7 33 -2 15 -4 35 -5 45 -1 18 -71 98 -71 81 0 -5 -4 -4 -8 2 -14
22 -66 24 -109 4z m134 -55 c44 -51 42 -103 -6 -158 -25 -27 -36 -32 -74 -32
-129 0 -155 190 -31 224 39 11 84 -3 111 -34z"/>
<path d="M3129 2143 c-13 -16 -12 -17 4 -4 16 13 21 21 13 21 -2 0 -10 -8 -17
-17z"/>
<path d="M2910 2000 c-9 -6 -10 -10 -3 -10 6 0 15 5 18 10 8 12 4 12 -15 0z"/>
<path d="M2945 1921 c-3 -5 -2 -12 3 -15 5 -3 9 1 9 9 0 17 -3 19 -12 6z"/>
<path d="M3208 1909 c6 -9 8 -20 4 -25 -4 -5 3 0 16 10 12 11 22 21 22 24 0 2
-6 0 -13 -7 -10 -8 -17 -7 -27 2 -12 10 -12 9 -2 -4z"/>
<path d="M3140 1855 c0 -7 30 -13 34 -7 3 4 -4 9 -15 9 -10 1 -19 0 -19 -2z"/>
<path d="M3010 1825 c0 -2 6 -8 13 -14 10 -8 14 -7 14 2 0 8 -6 14 -14 14 -7
0 -13 -1 -13 -2z"/>
<path d="M3085 1769 c-4 -6 -5 -12 -2 -15 2 -3 7 2 10 11 7 17 1 20 -8 4z"/>
<path d="M1403 1740 c-18 -4 -45 -16 -60 -26 -16 -10 -30 -18 -33 -18 -3 -1
-17 -14 -31 -31 -35 -42 -53 -104 -45 -157 4 -24 8 -49 8 -55 1 -7 5 -13 10
-13 4 0 8 -7 8 -15 0 -8 5 -15 10 -15 6 0 10 -7 10 -15 0 -8 4 -15 9 -15 6 0
22 -11 37 -25 14 -13 30 -22 35 -19 5 3 9 1 9 -5 0 -16 83 -24 127 -12 22 6
58 28 82 51 23 22 39 40 36 40 -3 0 2 12 12 27 22 33 25 47 25 104 -1 123
-128 225 -249 199z m127 -50 c74 -38 114 -130 90 -206 -28 -88 -93 -136 -180
-136 -186 2 -247 245 -86 343 42 26 124 25 176 -1z"/>
<path d="M1330 1431 c0 -6 4 -13 10 -16 6 -3 7 1 4 9 -7 18 -14 21 -14 7z"/>
<path d="M2902 1726 c-12 -14 -19 -40 -21 -76 -1 -46 3 -63 24 -94 14 -20 20
-34 14 -31 -6 4 -5 -2 3 -14 7 -12 16 -21 21 -21 4 0 5 -6 1 -12 -4 -7 -3 -10
1 -5 5 4 19 0 31 -8 13 -8 49 -22 81 -30 59 -16 109 -8 141 23 8 7 18 9 24 6
6 -4 9 -3 6 2 -3 5 4 18 15 29 11 11 16 13 12 5 -5 -9 -5 -12 1 -7 5 5 9 12
10 15 0 4 10 27 22 52 25 53 28 97 8 145 -18 43 -36 44 -72 6 -15 -17 -32 -28
-36 -25 -5 3 -7 1 -6 -4 4 -13 -70 -92 -84 -92 -12 0 -82 60 -71 60 4 0 -1 7
-11 15 -11 8 -16 15 -12 15 5 0 -7 13 -27 29 -20 15 -34 30 -32 33 3 3 -2 5
-10 5 -8 0 -23 -10 -33 -21z m56 -38 c70 -85 116 -128 137 -128 21 0 108 82
148 139 21 32 29 23 35 -37 10 -106 -63 -192 -167 -200 -126 -9 -215 87 -197
212 4 25 9 46 12 46 3 0 17 -15 32 -32z"/>
<path d="M3196 1562 c-3 -5 1 -9 9 -9 8 0 12 4 9 9 -3 4 -7 8 -9 8 -2 0 -6 -4
-9 -8z"/>
<path d="M2485 4220 c-3 -6 1 -7 9 -4 18 7 21 14 7 14 -6 0 -13 -4 -16 -10z"/>
<path d="M1390 4089 c0 -5 5 -7 10 -4 6 3 10 8 10 11 0 2 -4 4 -10 4 -5 0 -10
-5 -10 -11z"/>
<path d="M3246 3932 c-3 -4 4 -9 15 -9 23 -2 25 3 4 10 -8 4 -16 3 -19 -1z"/>
<path d="M2939 3778 c-1 -2 -2 -14 -3 -28 0 -14 -5 -32 -10 -40 -7 -12 -7 -13
5 -2 8 7 14 26 15 42 1 25 -2 38 -7 28z"/>
<path d="M2480 3755 c0 -5 5 -17 10 -25 5 -8 10 -10 10 -5 0 6 -5 17 -10 25
-5 8 -10 11 -10 5z"/>
<path d="M2905 3741 c-3 -5 -2 -12 3 -15 5 -3 9 1 9 9 0 17 -3 19 -12 6z"/>
<path d="M2538 3723 c7 -3 16 -2 19 1 4 3 -2 6 -13 5 -11 0 -14 -3 -6 -6z"/>
<path d="M2568 3718 c-7 -17 15 -19 29 -3 4 4 3 5 -4 2 -6 -4 -13 -2 -15 5 -3
8 -6 6 -10 -4z"/>
<path d="M3495 3681 c-3 -5 -2 -12 3 -15 5 -3 9 1 9 9 0 17 -3 19 -12 6z"/>
<path d="M3280 3647 c0 -2 6 -10 14 -16 11 -9 16 -9 22 1 4 7 4 10 -1 6 -4 -4
-14 -3 -22 3 -7 6 -13 9 -13 6z"/>
<path d="M3296 3287 c3 -10 9 -15 12 -12 3 3 0 11 -7 18 -10 9 -11 8 -5 -6z"/>
<path d="M2326 3197 c3 -10 9 -15 12 -12 3 3 0 11 -7 18 -10 9 -11 8 -5 -6z"/>
<path d="M620 3181 c0 -6 4 -13 10 -16 6 -3 7 1 4 9 -7 18 -14 21 -14 7z"/>
<path d="M2770 3186 c0 -2 7 -7 16 -10 8 -3 12 -2 9 4 -6 10 -25 14 -25 6z"/>
<path d="M3106 3125 c-11 -8 -15 -15 -9 -15 6 0 16 7 23 15 16 19 11 19 -14 0z"/>
<path d="M3045 3120 c-3 -6 1 -7 9 -4 18 7 21 14 7 14 -6 0 -13 -4 -16 -10z"/>
<path d="M3385 3091 c-3 -5 -2 -12 3 -15 5 -3 9 1 9 9 0 17 -3 19 -12 6z"/>
<path d="M1230 2973 c8 -3 22 -11 30 -17 13 -10 13 -9 1 7 -7 9 -21 17 -30 16
-13 0 -14 -1 -1 -6z"/>
<path d="M829 2883 c-13 -16 -12 -17 4 -4 9 7 17 15 17 17 0 8 -8 3 -21 -13z"/>
<path d="M742 2638 c-7 -7 -12 -16 -12 -22 0 -5 7 -1 16 10 15 19 16 19 9 -1
-5 -16 -4 -18 6 -7 9 8 10 15 3 22 -7 7 -14 6 -22 -2z"/>
<path d="M667 2569 c7 -7 15 -10 18 -7 3 3 -2 9 -12 12 -14 6 -15 5 -6 -5z"/>
<path d="M2926 2568 c3 -5 10 -6 15 -3 13 9 11 12 -6 12 -8 0 -12 -4 -9 -9z"/>
<path d="M595 2490 c-3 -6 1 -7 9 -4 18 7 21 14 7 14 -6 0 -13 -4 -16 -10z"/>
<path d="M3409 2493 c0 -5 -2 -16 -4 -26 -3 -14 -1 -16 10 -7 8 6 11 18 8 26
-6 15 -13 19 -14 7z"/>
<path d="M1316 2465 c-11 -8 -14 -15 -7 -15 7 0 9 -5 5 -12 -5 -10 -4 -10 6
-1 8 7 15 20 16 28 3 18 4 18 -20 0z"/>
<path d="M773 2365 c0 -8 4 -12 9 -9 5 3 6 10 3 15 -9 13 -12 11 -12 -6z"/>
<path d="M725 2361 c-3 -5 -2 -12 3 -15 5 -3 9 1 9 9 0 17 -3 19 -12 6z"/>
<path d="M695 2279 c-4 -6 -5 -12 -2 -15 2 -3 7 2 10 11 7 17 1 20 -8 4z"/>
<path d="M702 1849 c2 -7 -2 -13 -9 -14 -20 0 -24 -12 -8 -25 12 -10 18 -11
28 -1 9 10 8 11 -8 5 -19 -7 -19 -7 -2 13 12 14 15 23 7 28 -6 3 -9 1 -8 -6z"/>
<path d="M1346 1842 c-3 -5 1 -9 9 -9 8 0 12 4 9 9 -3 4 -7 8 -9 8 -2 0 -6 -4
-9 -8z"/>
<path d="M2803 1835 c0 -8 4 -12 9 -9 5 3 6 10 3 15 -9 13 -12 11 -12 -6z"/>
<path d="M1290 1836 c0 -2 7 -7 16 -10 8 -3 12 -2 9 4 -6 10 -25 14 -25 6z"/>
<path d="M1216 1768 c3 -5 10 -6 15 -3 13 9 11 12 -6 12 -8 0 -12 -4 -9 -9z"/>
<path d="M770 1760 c-8 -5 -10 -10 -4 -10 6 0 16 -10 23 -22 9 -18 10 -18 5
-3 -3 11 -7 26 -7 33 0 6 -1 12 -1 12 -1 0 -8 -5 -16 -10z"/>
<path d="M846 1692 c-3 -5 1 -9 9 -9 8 0 12 4 9 9 -3 4 -7 8 -9 8 -2 0 -6 -4
-9 -8z"/>
<path d="M570 1641 c0 -6 4 -13 10 -16 6 -3 7 1 4 9 -7 18 -14 21 -14 7z"/>
<path d="M661 1592 c3 -21 -2 -32 -13 -26 -7 4 -8 3 -4 -4 9 -15 9 -15 28 7
14 16 14 20 2 25 -7 3 -13 2 -13 -2z"/>
<path d="M864 1478 c-4 -7 -4 -10 1 -6 4 4 15 2 24 -5 14 -11 14 -10 2 6 -16
20 -18 21 -27 5z"/>
<path d="M3315 1420 c-4 -6 -1 -9 6 -8 7 2 13 -2 14 -9 0 -6 4 -15 9 -20 5 -4
6 -3 3 4 -4 6 -3 13 3 15 6 2 1 9 -9 15 -13 8 -22 9 -26 3z"/>
<path d="M1576 1228 c3 -5 10 -6 15 -3 13 9 11 12 -6 12 -8 0 -12 -4 -9 -9z"/>
</g>
</svg>
