<?xml version="1.0" standalone="no"?>
<!DOCTYPE svg PUBLIC "-//W3C//DTD SVG 20010904//EN"
 "http://www.w3.org/TR/2001/REC-SVG-20010904/DTD/svg10.dtd">
<svg version="1.0" xmlns="http://www.w3.org/2000/svg"
 width="600.000000pt" height="463.000000pt" viewBox="0 0 600.000000 463.000000"
 preserveAspectRatio="xMidYMid meet">
<g transform="translate(0.000000,463.000000) scale(0.100000,-0.100000)"
fill="#000000" stroke="none">
<path d="M2283 3705 c-41 -17 -66 -57 -73 -114 l-5 -45 -90 -31 c-49 -16 -117
-45 -149 -63 -33 -17 -64 -32 -69 -32 -5 0 -25 14 -44 30 -38 34 -94 40 -141
16 -39 -20 -189 -178 -202 -212 -16 -40 -5 -85 30 -124 17 -19 30 -35 30 -36
0 -2 -16 -34 -35 -71 -20 -37 -49 -106 -64 -153 l-29 -85 -44 -5 c-57 -7 -96
-33 -114 -75 -21 -51 -19 -266 2 -311 19 -41 59 -64 107 -64 42 0 50 -9 71
-82 9 -32 18 -58 19 -58 2 0 80 77 173 170 l169 171 11 82 c21 159 66 252 173
357 125 125 257 180 431 180 143 0 249 -35 355 -115 l48 -37 133 133 133 132
-25 32 c-40 53 -25 154 27 170 14 5 18 10 11 17 -14 14 -87 -10 -113 -38 -29
-31 -34 -30 -105 8 -32 18 -99 47 -149 63 l-90 31 -5 45 c-7 58 -32 97 -75
115 -46 19 -258 19 -302 -1z m310 -42 c27 -16 32 -26 35 -63 2 -25 9 -48 15
-52 7 -4 8 -8 3 -8 -5 0 -3 -7 4 -15 7 -8 16 -13 20 -10 5 3 10 0 12 -6 2 -6
16 -12 31 -12 15 -1 27 -6 27 -11 0 -4 9 -6 21 -3 12 3 18 3 15 0 -3 -4 22
-17 57 -31 34 -14 71 -32 81 -41 12 -10 16 -11 11 -2 -5 9 1 7 19 -4 24 -16
28 -16 51 -1 37 24 43 20 39 -31 -3 -37 1 -54 17 -77 l21 -28 -24 -22 c-13
-11 -34 -34 -46 -50 -12 -16 -22 -26 -22 -23 0 3 -24 -17 -52 -46 -29 -28 -51
-56 -50 -61 2 -6 1 -8 -3 -4 -4 4 -14 1 -22 -7 -20 -21 -24 -20 -65 21 -21 19
-42 33 -47 30 -5 -3 -11 -2 -13 4 -2 6 -13 12 -25 14 -12 3 -32 11 -45 19 -13
8 -43 18 -68 22 -25 4 -56 10 -70 12 -81 15 -224 -1 -300 -34 -88 -38 -119
-55 -155 -85 -21 -18 -39 -31 -40 -28 -5 11 -155 -176 -150 -187 2 -7 0 -13
-5 -13 -6 0 -10 -6 -10 -13 0 -8 -6 -27 -14 -43 -20 -40 -47 -172 -40 -199 4
-17 -21 -47 -130 -157 -75 -75 -136 -133 -136 -130 0 4 -9 -6 -19 -21 -20 -30
-24 -28 -34 14 -10 42 -57 82 -88 75 -14 -3 -31 0 -38 7 -6 6 -11 7 -11 3 0
-5 -10 4 -22 20 -21 26 -23 41 -26 164 -3 133 -2 135 23 165 15 17 23 23 19
15 -6 -13 -4 -12 12 1 10 9 34 15 52 13 24 -1 37 5 52 23 11 14 17 29 14 34
-3 5 -1 9 4 9 5 0 12 16 15 35 3 19 26 78 51 131 25 53 46 107 46 120 0 12
-10 35 -23 51 -34 41 -35 101 -4 135 14 15 22 29 19 32 -3 3 0 6 6 6 6 0 33
22 59 48 50 50 102 88 116 84 4 -1 19 -3 32 -4 14 -1 25 -5 25 -9 0 -4 20 -17
44 -29 l44 -21 70 36 c38 19 75 35 81 35 7 0 9 5 6 10 -4 6 -3 10 2 8 18 -4
123 24 123 33 0 6 4 8 9 5 13 -8 29 15 35 49 21 116 32 122 229 118 75 -1 105
-6 130 -20z"/>
<path d="M1895 3491 c3 -17 23 -17 40 0 7 7 3 8 -9 3 -12 -5 -17 -4 -13 3 3 5
0 10 -7 10 -8 0 -13 -7 -11 -16z"/>
<path d="M3344 3425 c-172 -15 -191 -19 -199 -46 -6 -17 3 -31 38 -67 l45 -45
-311 -313 -312 -312 -127 126 c-70 70 -135 129 -144 130 -18 4 -1050 -1019
-1060 -1052 -5 -14 15 -39 77 -102 46 -46 90 -84 99 -84 8 0 211 195 449 434
l435 435 128 -130 c75 -78 134 -129 143 -127 9 2 195 183 415 402 l400 400 43
-42 c41 -41 79 -53 92 -31 8 11 8 17 30 248 11 121 12 168 4 178 -13 15 -48
15 -245 -2z m221 -59 c-3 -22 -9 -99 -15 -171 -6 -71 -13 -138 -16 -147 -8
-27 -40 -21 -63 11 -44 62 -31 72 -463 -361 l-400 -400 -21 21 c-12 11 -70 67
-130 125 -59 58 -115 106 -125 106 -9 0 -132 -116 -273 -258 -141 -141 -294
-293 -340 -337 -46 -43 -78 -76 -71 -72 6 5 -23 -26 -65 -67 -42 -41 -80 -73
-85 -70 -5 3 -8 2 -7 -3 4 -15 -13 -43 -22 -37 -5 3 -9 1 -9 -5 0 -18 -31 1
-75 46 -24 24 -44 46 -44 49 -1 2 -4 3 -7 2 -3 -2 -12 8 -19 22 -13 24 -10 29
130 167 79 77 141 144 137 148 -4 4 -2 5 4 3 10 -3 145 128 138 135 -2 2 7 9
20 16 13 7 29 24 36 37 7 13 16 22 19 20 7 -4 170 162 165 167 -2 2 7 9 20 16
13 7 30 24 37 37 7 13 16 24 20 24 11 0 149 141 149 153 0 6 3 8 6 4 3 -3 17
7 31 24 14 16 32 28 41 27 11 -2 17 4 16 17 0 11 12 28 26 37 27 19 45 23 35
9 -3 -5 -1 -12 5 -16 5 -3 10 0 10 7 0 7 6 4 12 -7 6 -11 44 -52 83 -92 40
-40 70 -75 66 -79 -3 -4 2 -4 11 -1 13 4 15 2 11 -10 -4 -10 -2 -14 3 -10 6 3
17 -3 24 -14 18 -24 41 -24 68 1 12 11 27 20 33 20 7 0 10 3 6 6 -7 8 380 394
395 394 6 0 9 2 6 5 -3 3 35 46 83 95 49 50 89 92 89 95 0 10 -34 59 -57 83
-26 26 -29 38 -10 40 6 0 39 3 72 6 33 2 97 7 143 11 88 7 122 12 129 19 2 2
13 2 23 -1 16 -4 19 -12 15 -47z"/>
<path d="M1527 3415 c3 -8 9 -12 14 -9 12 7 11 11 -5 17 -10 4 -13 1 -9 -8z"/>
<path d="M3126 3302 c-3 -5 1 -9 9 -9 8 0 12 4 9 9 -3 4 -7 8 -9 8 -2 0 -6 -4
-9 -8z"/>
<path d="M3465 2960 c-3 -6 1 -7 9 -4 18 7 21 14 7 14 -6 0 -13 -4 -16 -10z"/>
<path d="M3210 2745 l-165 -165 -11 -93 c-20 -152 -93 -292 -201 -386 -58 -50
-186 -115 -268 -136 -158 -40 -348 -1 -487 101 l-50 37 -196 -194 c-108 -107
-198 -195 -200 -196 -8 -4 82 -79 105 -87 35 -12 87 1 117 29 15 14 33 25 41
25 7 0 49 -17 92 -39 43 -21 105 -47 138 -57 77 -23 85 -29 85 -71 0 -61 38
-108 95 -119 18 -3 88 -4 156 -2 105 2 128 6 151 23 30 22 48 62 48 105 0 34
10 42 85 64 33 10 95 36 138 57 43 22 83 39 88 39 6 0 25 -11 44 -25 38 -29
89 -41 123 -28 13 5 68 54 123 108 126 126 135 157 69 240 l-29 37 33 66 c19
37 46 103 61 147 35 99 39 105 82 105 49 0 92 26 109 65 19 47 19 263 0 310
-18 42 -52 65 -112 73 l-48 7 -18 63 c-10 34 -22 62 -26 62 -4 0 -81 -74 -172
-165z m163 98 c-4 -11 -3 -14 5 -9 8 5 10 2 6 -9 -8 -19 61 -87 85 -84 30 4
71 -13 83 -34 7 -13 10 -72 9 -157 -2 -159 -2 -160 -11 -160 -4 0 -17 -9 -29
-20 -16 -13 -32 -17 -51 -14 -22 5 -34 0 -59 -26 -17 -18 -31 -41 -31 -51 0
-10 -10 -44 -22 -76 -12 -32 -21 -61 -20 -65 1 -5 -3 -8 -10 -8 -6 0 -8 -3 -5
-7 4 -3 -3 -18 -15 -31 -13 -14 -17 -22 -9 -17 11 6 10 2 -2 -16 -9 -13 -17
-31 -17 -41 0 -25 22 -68 31 -62 5 3 9 -4 9 -16 0 -12 4 -19 8 -16 20 12 0
-91 -20 -105 -5 -3 -47 -43 -93 -87 -97 -96 -125 -104 -185 -52 -34 29 -90 41
-90 19 0 -5 -4 -8 -9 -5 -5 3 -20 -4 -35 -15 -14 -11 -26 -17 -26 -13 0 4 -8
0 -18 -9 -10 -10 -22 -14 -25 -10 -4 3 -7 0 -7 -7 0 -7 -3 -11 -6 -7 -4 3 -18
0 -33 -7 -14 -7 -43 -16 -65 -20 -49 -9 -86 -46 -86 -85 0 -87 -45 -109 -215
-105 -104 3 -112 4 -142 31 -24 21 -33 38 -36 70 -5 54 -19 70 -71 84 -49 13
-56 16 -170 68 -49 23 -97 41 -107 41 -9 0 -31 -11 -47 -25 -17 -14 -37 -25
-47 -25 -9 0 -14 -4 -11 -9 4 -5 -9 -6 -29 -1 -30 7 -74 42 -75 61 0 10 179
189 190 189 5 0 9 3 8 8 -3 9 140 152 152 152 5 0 35 -18 66 -40 32 -22 62
-40 67 -40 6 0 18 -6 26 -13 14 -12 101 -38 141 -42 8 -1 34 -5 56 -9 36 -6
80 -2 179 18 56 11 74 19 68 29 -3 6 -1 7 6 3 7 -4 20 -4 29 0 9 4 19 8 22 8
23 5 107 62 103 70 -3 5 -2 6 4 3 5 -4 25 5 43 18 19 14 31 25 27 25 -4 0 16
23 43 51 66 67 126 189 146 297 8 45 14 90 12 100 -2 9 6 25 17 35 11 10 13
15 5 11 -13 -7 -13 -6 -1 9 8 10 16 16 18 13 7 -7 138 127 135 138 -2 6 -1 8
3 5 7 -8 81 62 77 74 -1 5 2 6 7 2 6 -3 15 4 21 15 13 24 32 27 23 3z"/>
<path d="M2195 2860 c-3 -5 -12 -7 -20 -3 -8 3 -15 3 -15 0 0 -13 30 -14 40
-1 7 8 10 14 7 14 -3 0 -8 -4 -12 -10z"/>
<path d="M2450 2865 c0 -2 6 -8 13 -14 10 -8 14 -7 14 2 0 8 -6 14 -14 14 -7
0 -13 -1 -13 -2z"/>
<path d="M2726 2853 c-6 -14 -5 -15 5 -6 7 7 10 15 7 18 -3 3 -9 -2 -12 -12z"/>
<path d="M2644 2769 c-3 -6 -2 -15 3 -20 5 -5 9 -1 9 11 0 23 -2 24 -12 9z"/>
<path d="M3120 2725 c-7 -9 -11 -17 -9 -20 3 -2 10 5 17 15 14 24 10 26 -8 5z"/>
<path d="M2019 2683 c-13 -16 -12 -17 4 -4 16 13 21 21 13 21 -2 0 -10 -8 -17
-17z"/>
<path d="M1940 2611 c0 -7 -5 -9 -12 -5 -7 5 -8 3 -3 -5 5 -9 10 -10 18 -2 6
6 8 14 4 18 -4 3 -7 1 -7 -6z"/>
<path d="M1954 2588 l-19 -23 23 19 c21 18 27 26 19 26 -2 0 -12 -10 -23 -22z"/>
<path d="M2989 2583 c-13 -16 -12 -17 4 -4 16 13 21 21 13 21 -2 0 -10 -8 -17
-17z"/>
<path d="M2300 2449 c-20 -16 -21 -18 -4 -10 12 6 23 8 26 6 3 -3 5 2 5 10 0
8 -1 15 -1 15 -1 0 -12 -10 -26 -21z"/>
<path d="M1775 2420 c-3 -6 1 -7 9 -4 18 7 21 14 7 14 -6 0 -13 -4 -16 -10z"/>
<path d="M2352 2408 c-8 -10 -4 -13 15 -15 15 0 22 2 17 6 -5 3 -12 10 -15 14
-3 4 -11 2 -17 -5z"/>
<path d="M1745 2390 c-3 -6 1 -7 9 -4 18 7 21 14 7 14 -6 0 -13 -4 -16 -10z"/>
<path d="M1283 2325 c0 -8 4 -12 9 -9 5 3 6 10 3 15 -9 13 -12 11 -12 -6z"/>
<path d="M2215 2330 c-3 -6 1 -7 9 -4 18 7 21 14 7 14 -6 0 -13 -4 -16 -10z"/>
<path d="M2410 2336 c0 -2 8 -10 18 -17 15 -13 16 -12 3 4 -13 16 -21 21 -21
13z"/>
<path d="M2486 2267 c3 -10 9 -15 12 -12 3 3 0 11 -7 18 -10 9 -11 8 -5 -6z"/>
<path d="M2050 2176 c0 -2 8 -10 18 -17 15 -13 16 -12 3 4 -13 16 -21 21 -21
13z"/>
<path d="M1383 2058 c1 -7 -3 -12 -9 -11 -6 1 -11 -5 -11 -13 0 -12 4 -11 18
2 10 9 16 21 13 25 -8 13 -14 11 -11 -3z"/>
<path d="M1404 2038 l-29 -33 33 29 c17 17 32 31 32 33 0 8 -8 1 -36 -29z"/>
<path d="M1284 1950 c0 -20 21 -20 39 0 9 11 8 11 -7 0 -18 -13 -19 -13 -14 1
3 9 1 16 -6 16 -6 0 -12 -8 -12 -17z"/>
<path d="M1720 1860 c-9 -6 -10 -10 -3 -10 6 0 15 5 18 10 8 12 4 12 -15 0z"/>
<path d="M1640 1796 c0 -2 7 -7 16 -10 8 -3 12 -2 9 4 -6 10 -25 14 -25 6z"/>
<path d="M1566 1683 c-6 -14 -5 -15 5 -6 7 7 10 15 7 18 -3 3 -9 -2 -12 -12z"/>
<path d="M1607 1611 c-3 -13 -1 -18 9 -14 7 2 10 11 7 19 -7 19 -10 18 -16 -5z"/>
<path d="M2991 1611 c-8 -5 -9 -11 -3 -15 5 -3 12 1 16 9 6 17 6 18 -13 6z"/>
<path d="M1663 93 c796 -2 2098 -2 2895 0 796 1 144 2 -1448 2 -1592 0 -2244
-1 -1447 -2z"/>
</g>
</svg>
