<?xml version="1.0" standalone="no"?>
<!DOCTYPE svg PUBLIC "-//W3C//DTD SVG 20010904//EN"
 "http://www.w3.org/TR/2001/REC-SVG-20010904/DTD/svg10.dtd">
<svg version="1.0" xmlns="http://www.w3.org/2000/svg"
 width="600.000000pt" height="403.000000pt" viewBox="0 0 600.000000 403.000000"
 preserveAspectRatio="xMidYMid meet">
<g transform="translate(0.000000,403.000000) scale(0.100000,-0.100000)"
fill="#000000" stroke="none">
<path d="M2202 3388 c-19 -19 -16 -207 3 -214 13 -5 15 -40 15 -225 l0 -218
-57 -40 c-74 -50 -199 -179 -248 -256 -50 -78 -88 -162 -82 -179 3 -8 45 -29
94 -48 48 -20 196 -79 328 -133 132 -53 287 -116 344 -139 l105 -43 215 105
c119 57 306 148 417 202 111 53 204 103 208 109 11 16 -64 143 -127 217 -101
119 -241 222 -362 266 l-50 19 3 94 c4 107 -13 175 -56 226 -19 23 -22 33 -13
39 18 11 17 210 -1 221 -22 14 -722 11 -736 -3z m53 -30 c-11 -6 -23 -16 -27
-22 -5 -8 -8 -7 -8 1 0 12 28 32 45 32 6 0 1 -5 -10 -11z m668 -2 c4 -10 1
-13 -8 -9 -8 3 -12 9 -9 14 7 12 11 11 17 -5z m-33 -73 l0 -53 -320 0 -320 0
0 53 0 52 320 0 320 0 0 -52z m-636 -78 c10 -8 24 -11 30 -8 6 4 5 -1 -3 -10
-19 -24 -36 -21 -49 8 -13 28 -6 31 22 10z m663 -9 c-6 -12 -10 -27 -9 -33 3
-16 -14 -17 -24 -2 -3 6 -20 17 -38 25 l-31 15 33 -6 c21 -4 32 -3 32 5 0 6 5
8 10 5 6 -3 10 -2 10 3 0 5 7 9 14 9 12 0 13 -4 3 -21z m-50 -58 c14 -13 37
-43 51 -68 23 -38 27 -59 30 -142 3 -54 0 -98 -4 -98 -5 1 -36 7 -69 15 -33 8
-91 15 -130 15 l-70 0 -33 74 c-36 80 -123 186 -152 186 -10 0 -22 -9 -25 -21
-5 -16 2 -31 32 -63 45 -47 73 -91 99 -155 10 -25 75 -139 146 -254 70 -115
128 -220 128 -233 0 -33 -54 -61 -84 -44 -11 6 -59 69 -106 140 l-85 128 -53
6 c-66 8 -165 52 -215 95 l-37 33 0 207 0 206 276 -2 c273 -2 277 -3 301 -25z
m-610 -145 c-2 -32 -3 -8 -3 52 0 61 1 87 3 58 2 -29 2 -78 0 -110z m684 110
c13 -16 12 -17 -3 -4 -17 13 -22 21 -14 21 2 0 10 -8 17 -17z m-337 -149 c3
-8 2 -12 -4 -9 -6 3 -10 10 -10 16 0 14 7 11 14 -7z m80 -124 c19 0 21 -14 3
-29 -11 -8 -17 -5 -27 17 -21 41 -23 49 -7 30 8 -10 22 -18 31 -18z m307 -43
c-5 -5 -20 -3 -37 7 -20 10 -24 15 -11 16 9 0 17 5 17 12 0 6 9 3 20 -7 12
-11 17 -22 11 -28z m-16 -33 c195 -65 358 -195 469 -372 26 -42 27 -44 9 -58
-10 -7 -21 -14 -24 -14 -7 0 -154 -70 -521 -248 l-208 -100 -257 105 c-142 58
-322 131 -400 162 l-143 56 41 70 c64 109 141 198 235 269 l88 65 37 -29 c50
-40 132 -77 203 -92 l59 -13 77 -115 c89 -133 105 -149 153 -157 72 -11 159
70 143 133 -4 14 -56 105 -116 204 -61 98 -110 180 -110 183 0 11 194 -25 265
-49z m-699 -26 c10 -20 11 -28 3 -21 -8 8 -17 9 -24 3 -8 -7 -12 -5 -12 5 0 8
4 15 9 15 4 0 8 5 8 11 0 5 -5 7 -12 3 -7 -4 -8 -3 -4 4 11 17 14 15 32 -20z
m869 -16 c-3 -3 -11 0 -18 7 -9 10 -8 11 6 5 10 -3 15 -9 12 -12z m125 -78 c0
-2 -9 0 -20 6 -11 6 -20 13 -20 16 0 2 9 0 20 -6 11 -6 20 -13 20 -16z m-1150
-18 c0 -2 -8 -10 -17 -17 -16 -13 -17 -12 -4 4 13 16 21 21 21 13z m470 -46
c6 -11 8 -20 6 -20 -3 0 -10 9 -16 20 -6 11 -8 20 -6 20 3 0 10 -9 16 -20z
m231 -7 c13 -16 12 -17 -3 -4 -17 13 -22 21 -14 21 2 0 10 -8 17 -17z m524 7
c3 -6 -1 -7 -9 -4 -18 7 -21 14 -7 14 6 0 13 -4 16 -10z m-717 -55 c-3 -3 -9
2 -12 12 -6 14 -5 15 5 6 7 -7 10 -15 7 -18z m762 0 c14 -19 14 -19 -2 -6 -10
7 -18 18 -18 24 0 6 1 8 3 6 1 -2 9 -13 17 -24z m-706 -71 c3 -8 2 -12 -4 -9
-6 3 -10 10 -10 16 0 14 7 11 14 -7z m66 -99 c14 -19 14 -19 -2 -6 -10 7 -18
18 -18 24 0 6 1 8 3 6 1 -2 9 -13 17 -24z m763 -8 c3 -7 -4 -19 -15 -26 -11
-7 -18 -9 -16 -4 3 4 8 16 11 26 8 20 13 22 20 4z m-1630 -57 c3 -11 1 -20 -4
-20 -5 0 -9 9 -9 20 0 11 2 20 4 20 2 0 6 -9 9 -20z m1287 -124 c0 -2 -8 -10
-17 -17 -16 -13 -17 -12 -4 4 13 16 21 21 21 13z m-120 -60 c0 -2 -7 -7 -16
-10 -8 -3 -12 -2 -9 4 6 10 25 14 25 6z m-425 -136 c3 -6 -1 -7 -9 -4 -18 7
-21 14 -7 14 6 0 13 -4 16 -10z m145 6 c0 -2 -8 -10 -17 -17 -16 -13 -17 -12
-4 4 13 16 21 21 21 13z m-40 -30 c0 -2 -7 -7 -16 -10 -8 -3 -12 -2 -9 4 6 10
25 14 25 6z"/>
<path d="M2826 3117 c3 -10 9 -15 12 -12 3 3 0 11 -7 18 -10 9 -11 8 -5 -6z"/>
<path d="M2585 2779 c-4 -6 -5 -12 -2 -15 2 -3 7 2 10 11 7 17 1 20 -8 4z"/>
<path d="M2351 2747 c2 -2 11 -8 20 -15 12 -9 16 -9 16 1 0 7 -9 14 -20 14
-11 1 -18 1 -16 0z"/>
<path d="M2647 2696 c-4 -9 -1 -15 6 -13 7 1 11 -4 9 -11 -1 -8 2 -11 8 -7 8
5 7 12 -2 23 -7 10 -13 18 -14 20 -1 2 -4 -4 -7 -12z"/>
<path d="M2770 2420 c-13 -8 -12 -10 3 -10 9 0 17 5 17 10 0 12 -1 12 -20 0z"/>
<path d="M3130 2625 c6 -8 9 -18 7 -22 -3 -5 3 -9 13 -9 18 0 18 2 -2 23 -24
25 -38 32 -18 8z"/>
<path d="M2026 2442 c-3 -5 1 -9 9 -9 8 0 12 4 9 9 -3 4 -7 8 -9 8 -2 0 -6 -4
-9 -8z"/>
<path d="M2576 2438 c3 -5 10 -6 15 -3 13 9 11 12 -6 12 -8 0 -12 -4 -9 -9z"/>
<path d="M3395 2361 c-3 -5 -2 -12 3 -15 5 -3 9 1 9 9 0 17 -3 19 -12 6z"/>
<path d="M2807 2089 c7 -7 15 -10 18 -7 3 3 -2 9 -12 12 -14 6 -15 5 -6 -5z"/>
<path d="M2140 2730 c-9 -6 -10 -10 -3 -10 6 0 15 5 18 10 8 12 4 12 -15 0z"/>
<path d="M2009 2653 c-13 -16 -12 -17 4 -4 16 13 21 21 13 21 -2 0 -10 -8 -17
-17z"/>
<path d="M1965 2580 c-4 -6 -10 -8 -15 -5 -4 3 -7 -2 -6 -10 1 -8 4 -16 7 -17
2 -2 3 -1 1 1 -1 2 5 13 15 23 9 10 13 18 10 18 -3 0 -9 -5 -12 -10z"/>
<path d="M1859 2493 c-13 -16 -12 -17 4 -4 9 7 17 15 17 17 0 8 -8 3 -21 -13z"/>
<path d="M1870 2465 c-7 -14 -10 -28 -7 -32 4 -3 7 0 7 7 0 7 7 22 17 32 9 10
12 18 6 18 -5 0 -16 -11 -23 -25z"/>
<path d="M3563 2275 c0 -7 6 -11 14 -8 7 3 13 6 13 8 0 2 -6 5 -13 8 -8 3 -14
-1 -14 -8z"/>
<path d="M3526 2262 c-3 -5 1 -9 9 -9 8 0 12 4 9 9 -3 4 -7 8 -9 8 -2 0 -6 -4
-9 -8z"/>
<path d="M3634 2259 c-3 -6 -2 -15 3 -20 5 -5 9 -1 9 11 0 23 -2 24 -12 9z"/>
<path d="M3665 2259 c-4 -6 -5 -12 -2 -15 2 -3 7 2 10 11 7 17 1 20 -8 4z"/>
<path d="M3535 2218 c-11 -7 -126 -63 -255 -126 -129 -62 -306 -147 -392 -189
l-158 -76 0 -463 c0 -254 3 -469 6 -478 4 -11 19 -16 49 -16 60 0 206 27 263
48 l47 18 23 -28 c20 -24 21 -29 8 -34 -22 -8 -24 -195 -2 -213 9 -8 117 -11
377 -9 l364 3 3 108 c2 89 0 108 -13 113 -13 5 -15 46 -15 305 0 229 -3 307
-14 332 -7 18 -40 68 -73 112 l-60 80 -5 145 c-4 130 -8 155 -37 240 -47 140
-64 158 -116 128z m35 -22 c0 -3 -4 -8 -10 -11 -5 -3 -10 -1 -10 4 0 6 5 11
10 11 6 0 10 -2 10 -4z m-55 -26 c-3 -5 -12 -10 -18 -10 -7 0 -6 4 3 10 19 12
23 12 15 0z m81 -110 c26 -79 28 -96 28 -250 0 -146 -3 -174 -25 -245 -23 -77
-25 -80 -56 -83 -30 -3 -35 2 -119 127 -96 143 -127 168 -187 155 -37 -8 -77
-36 -94 -67 -27 -49 -16 -77 112 -287 69 -113 125 -208 125 -211 0 -15 -108
-103 -174 -141 -108 -63 -246 -109 -363 -122 l-53 -5 0 428 0 428 268 128
c147 71 319 155 382 186 63 31 118 54 122 50 3 -3 19 -44 34 -91z m-286 16 c0
-2 -8 -10 -17 -17 -16 -13 -17 -12 -4 4 13 16 21 21 21 13z m-460 -230 c0 -3
-4 -8 -10 -11 -5 -3 -10 -1 -10 4 0 6 5 11 10 11 6 0 10 -2 10 -4z m526 -279
c48 -73 89 -133 89 -135 1 -1 28 -7 60 -12 32 -5 63 -14 69 -20 17 -17 44 -11
52 12 4 14 1 25 -9 33 -13 9 -13 14 -2 35 8 14 19 51 26 83 7 31 16 57 19 57
3 0 13 -12 22 -28 9 -15 30 -47 47 -71 l31 -44 0 -299 0 -298 -278 0 -278 0
-35 36 -34 35 25 19 c14 11 29 20 33 20 12 0 93 56 150 103 26 22 49 38 51 36
2 -2 16 -28 30 -57 36 -72 103 -144 130 -140 34 5 31 37 -6 77 -47 49 -70 85
-104 161 -16 36 -84 155 -151 265 -68 110 -123 208 -123 218 0 22 55 56 80 50
10 -3 57 -64 106 -136z m334 68 c0 -2 -7 -2 -15 1 -8 4 -22 1 -30 -6 -13 -10
-15 -9 -15 11 0 13 3 34 6 46 6 21 7 21 30 -13 13 -19 24 -37 24 -39z m44 -64
c-2 -3 -12 3 -22 13 -16 17 -16 18 5 5 12 -7 20 -15 17 -18z m-549 -10 c-6 -5
-25 10 -25 20 0 5 6 4 14 -3 8 -7 12 -15 11 -17z m50 -81 c10 -11 16 -20 13
-20 -3 0 -13 9 -23 20 -10 11 -16 20 -13 20 3 0 13 -9 23 -20z m240 -19 c-6
-5 -25 10 -25 20 0 5 6 4 14 -3 8 -7 12 -15 11 -17z m101 -8 c-2 -9 -9 -19
-17 -21 -11 -3 -11 -1 1 7 13 10 13 11 0 11 -13 0 -13 1 0 10 19 12 19 13 16
-7z m-172 -266 c15 -15 2 -31 -27 -33 -17 -2 -17 0 -3 15 9 10 13 21 9 24 -3
4 -3 7 1 7 4 0 13 -6 20 -13z m-66 -61 c-7 -8 -15 -12 -17 -11 -5 6 10 25 20
25 5 0 4 -6 -3 -14z m96 -2 c3 -8 2 -12 -4 -9 -6 3 -10 10 -10 16 0 14 7 11
14 -7z m-317 -161 c-8 -8 -21 -11 -31 -7 -21 8 -3 23 26 21 15 -1 16 -4 5 -14z
m-347 -54 c0 -5 -4 -9 -10 -9 -5 0 -10 5 -10 11 0 5 -5 7 -12 3 -7 -4 -8 -3
-4 4 7 12 36 5 36 -9z m406 -40 c18 -19 23 -28 11 -24 -10 4 -28 0 -42 -9 -24
-16 -25 -15 -25 3 0 11 5 23 11 26 6 4 8 13 5 21 -9 23 8 16 40 -17z m634 -14
c16 -30 5 -46 -14 -20 -7 10 -18 15 -24 11 -7 -4 -12 -2 -12 3 0 6 5 11 11 11
5 0 7 5 4 10 -3 6 0 10 8 10 7 0 20 -11 27 -25z m-20 -90 l0 -55 -320 0 -320
0 0 55 0 55 320 0 320 0 0 -55z m-630 -80 c0 -3 -9 -5 -20 -5 -11 0 -20 7 -20
15 0 13 4 14 20 5 11 -6 20 -13 20 -15z m665 15 c3 -5 -1 -10 -10 -10 -9 0
-13 5 -10 10 3 6 8 10 10 10 2 0 7 -4 10 -10z"/>
<path d="M3135 1769 c-4 -6 -4 -13 -1 -16 3 -4 6 -1 6 6 0 7 5 9 12 5 7 -4 8
-3 4 4 -9 15 -13 15 -21 1z"/>
<path d="M3279 1623 c-12 -14 -12 -16 0 -8 11 6 13 4 8 -9 -4 -9 -3 -15 2 -11
6 3 9 14 8 25 -2 24 -1 24 -18 3z"/>
<path d="M3325 1560 c-4 -6 -11 -7 -17 -4 -6 4 -8 2 -5 -4 7 -10 32 -11 42 0
4 3 2 9 -4 12 -5 4 -12 2 -16 -4z"/>
<path d="M3684 1482 c4 -3 14 -7 22 -8 9 -1 13 0 10 4 -4 3 -14 7 -22 8 -9 1
-13 0 -10 -4z"/>
<path d="M3445 991 c-3 -5 -2 -12 3 -15 5 -3 9 1 9 9 0 17 -3 19 -12 6z"/>
<path d="M3460 956 c0 -2 8 -10 18 -17 15 -13 16 -12 3 4 -13 16 -21 21 -21
13z"/>
<path d="M1776 2158 c-17 -27 -56 -156 -56 -184 0 -11 -67 -110 -149 -221 -83
-111 -157 -215 -165 -232 -14 -25 -16 -77 -16 -331 0 -287 -1 -301 -20 -320
-17 -17 -20 -33 -20 -108 0 -55 4 -92 12 -100 17 -17 729 -17 746 0 19 19 16
192 -3 208 -13 11 -12 16 9 41 14 16 30 44 37 63 l13 35 27 -19 c38 -28 165
-77 245 -96 38 -9 105 -17 149 -17 l80 -2 3 476 2 476 -27 12 c-16 8 -98 42
-183 76 -85 35 -229 93 -320 130 -238 97 -334 135 -342 135 -4 0 -14 -10 -22
-22z m41 -22 c0 -7 -9 -19 -19 -25 -18 -11 -18 -11 -2 14 19 29 21 30 21 11z
m38 -6 c3 -6 -1 -7 -9 -4 -18 7 -21 14 -7 14 6 0 13 -4 16 -10z m250 -139 c39
-16 108 -45 155 -64 47 -19 145 -58 218 -88 l132 -52 0 -429 0 -430 -27 6
c-16 2 -50 8 -78 11 -178 24 -375 130 -504 271 -93 101 -91 89 -23 201 32 54
73 120 91 147 34 55 39 92 16 135 -14 28 -85 71 -116 71 -35 0 -82 -40 -128
-108 -47 -71 -49 -72 -55 -45 -3 15 -9 80 -12 143 -7 119 3 213 32 301 l15 47
107 -44 c59 -25 139 -57 177 -73z m-362 -93 c-1 -24 -2 -52 -2 -62 -1 -18 -2
-18 -19 -3 -13 12 -21 13 -37 4 -19 -10 -19 -10 -3 14 9 13 22 24 30 23 8 -1
15 8 16 20 1 17 -1 18 -8 6 -5 -8 -10 -11 -10 -6 0 7 29 46 34 46 1 0 1 -19
-1 -42z m-9 -323 c21 -67 7 -90 -61 -99 -61 -8 -95 -30 -91 -59 2 -17 9 -22
28 -20 25 1 99 19 135 33 11 4 60 66 108 139 80 118 92 131 118 131 34 0 73
-34 66 -59 -2 -9 -59 -106 -126 -215 -67 -109 -139 -236 -161 -281 -21 -46
-57 -104 -80 -129 -44 -48 -49 -79 -14 -84 33 -5 100 79 155 193 71 149 65
146 122 75 26 -33 76 -83 112 -111 l64 -52 -15 -35 c-8 -20 -30 -55 -50 -79
l-35 -43 -280 0 -279 0 0 299 0 299 38 55 c20 30 78 109 127 175 l90 121 7
-102 c4 -56 14 -124 22 -152z m906 223 c0 -12 -6 -9 -26 13 -19 22 -19 22 4 8
12 -8 22 -17 22 -21z m-571 -132 c-3 -3 -11 5 -18 17 -13 21 -12 21 5 5 10
-10 16 -20 13 -22z m-519 -10 c0 -2 -8 -10 -17 -17 -16 -13 -17 -12 -4 4 13
16 21 21 21 13z m310 -26 c-6 -11 -13 -20 -16 -20 -2 0 0 9 6 20 6 11 13 20
16 20 2 0 0 -9 -6 -20z m-46 -67 c-10 -16 -24 -34 -31 -41 -11 -11 -13 -10
-13 6 0 11 -3 28 -7 38 -5 14 -2 16 21 12 14 -3 29 -1 32 3 3 5 8 9 11 9 3 0
-3 -12 -13 -27z m-343 -6 c-10 -9 -11 -8 -5 6 3 10 9 15 12 12 3 -3 0 -11 -7
-18z m282 -82 c-3 -9 -8 -14 -10 -11 -3 3 -2 9 2 15 9 16 15 13 8 -4z m-83
-29 c0 -2 -7 -7 -16 -10 -8 -3 -12 -2 -9 4 6 10 25 14 25 6z m235 -168 c1 -14
-1 -15 -12 -7 -7 6 -20 9 -28 5 -8 -3 -15 -1 -15 4 0 6 5 10 12 10 6 0 9 3 5
6 -3 3 0 12 6 19 10 10 14 10 21 -4 6 -9 11 -24 11 -33z m-75 -62 c0 -3 -4 -8
-10 -11 -5 -3 -10 -1 -10 4 0 6 5 11 10 11 6 0 10 -2 10 -4z m-47 -91 c-3 -9
-8 -14 -10 -11 -3 3 -2 9 2 15 9 16 15 13 8 -4z m287 -11 c0 -2 -9 0 -20 6
-11 6 -20 13 -20 16 0 2 9 0 20 -6 11 -6 20 -13 20 -16z m80 -67 c0 -5 7 -7
14 -4 10 4 13 1 9 -9 -3 -7 -11 -14 -19 -14 -8 0 -14 -4 -14 -10 0 -5 -4 -10
-9 -10 -5 0 -7 9 -4 19 3 10 0 29 -7 40 -10 20 -10 21 9 9 12 -7 21 -17 21
-21z m490 -127 c0 -5 -5 -10 -11 -10 -5 0 -7 5 -4 10 3 6 8 10 11 10 2 0 4 -4
4 -10z m-565 -30 c-3 -5 -2 -18 3 -27 5 -10 7 -24 5 -31 -4 -10 -9 -9 -24 4
-10 9 -27 14 -39 11 -17 -4 -16 -1 8 24 25 27 61 41 47 19z m-635 -25 c10 -12
10 -15 -3 -15 -9 0 -25 -10 -36 -22 l-20 -21 4 22 c5 25 23 51 35 51 4 0 13
-7 20 -15z m620 -100 l0 -55 -320 0 -320 0 0 55 0 55 320 0 320 0 0 -55z
m-661 -59 c7 -8 8 -17 3 -20 -6 -3 -12 3 -15 14 -6 24 -4 25 12 6z m681 -16
c0 -5 -4 -10 -10 -10 -5 0 -10 5 -10 10 0 6 5 10 10 10 6 0 10 -4 10 -10z"/>
<path d="M1850 1780 c-9 -6 -10 -10 -3 -10 6 0 15 5 18 10 8 12 4 12 -15 0z"/>
<path d="M1639 1673 c-13 -16 -12 -17 4 -4 16 13 21 21 13 21 -2 0 -10 -8 -17
-17z"/>
<path d="M1651 1647 c-13 -21 -12 -21 5 -5 10 10 16 20 13 22 -3 3 -11 -5 -18
-17z"/>
<path d="M1530 1466 c0 -2 7 -7 16 -10 8 -3 12 -2 9 4 -6 10 -25 14 -25 6z"/>
<path d="M1775 1299 c-4 -6 -5 -12 -2 -15 2 -3 7 2 10 11 7 17 1 20 -8 4z"/>
<path d="M1943 1083 c0 -8 6 -9 19 -2 10 5 18 11 18 12 0 2 -8 3 -18 3 -10 0
-19 -6 -19 -13z"/>
<path d="M1986 1082 c-3 -5 1 -9 9 -9 8 0 12 4 9 9 -3 4 -7 8 -9 8 -2 0 -6 -4
-9 -8z"/>
<path d="M1606 1062 c-2 -4 -1 -14 3 -21 6 -10 10 -9 14 3 6 16 -8 32 -17 18z"/>
<path d="M2024 987 c-20 -11 -20 -14 -7 -26 14 -12 15 -12 11 0 -3 8 2 19 11
26 20 16 12 16 -15 0z"/>
<path d="M1616 1938 c3 -5 10 -6 15 -3 13 9 11 12 -6 12 -8 0 -12 -4 -9 -9z"/>
<path d="M1636 1913 c-6 -14 -5 -15 5 -6 7 7 10 15 7 18 -3 3 -9 -2 -12 -12z"/>
<path d="M1375 1621 c-3 -5 -2 -12 3 -15 5 -3 9 1 9 9 0 17 -3 19 -12 6z"/>
<path d="M2428 853 c7 -3 16 -2 19 1 4 3 -2 6 -13 5 -11 0 -14 -3 -6 -6z"/>
<path d="M2125 630 c3 -5 8 -10 11 -10 2 0 4 5 4 10 0 6 -5 10 -11 10 -5 0 -7
-4 -4 -10z"/>
<path d="M3046 627 c3 -10 9 -15 12 -12 3 3 0 11 -7 18 -10 9 -11 8 -5 -6z"/>
</g>
</svg>
