<?xml version="1.0" standalone="no"?>
<!DOCTYPE svg PUBLIC "-//W3C//DTD SVG 20010904//EN"
 "http://www.w3.org/TR/2001/REC-SVG-20010904/DTD/svg10.dtd">
<svg version="1.0" xmlns="http://www.w3.org/2000/svg"
 width="600.000000pt" height="416.000000pt" viewBox="0 0 600.000000 416.000000"
 preserveAspectRatio="xMidYMid meet">
<g transform="translate(0.000000,416.000000) scale(0.100000,-0.100000)"
fill="#000000" stroke="none">
<path d="M5543 4153 c87 -2 227 -2 310 0 84 1 13 3 -158 3 -170 0 -239 -2
-152 -3z"/>
<path d="M2405 3189 c-4 -6 -5 -12 -2 -15 2 -3 7 2 10 11 7 17 1 20 -8 4z"/>
<path d="M2896 3188 c3 -5 10 -6 15 -3 13 9 11 12 -6 12 -8 0 -12 -4 -9 -9z"/>
<path d="M2533 3165 c-470 -100 -825 -448 -944 -926 -31 -125 -34 -399 -6
-524 131 -578 619 -975 1198 -975 280 0 526 82 748 250 92 70 117 105 106 148
-4 17 -152 173 -413 434 l-407 408 2 566 c2 605 2 608 -46 634 -31 16 -117 11
-238 -15z m225 -613 l2 -573 -105 -103 -106 -104 -28 57 c-49 97 -183 210
-268 227 l-30 6 43 43 c111 112 75 305 -71 374 -81 38 -196 20 -264 -42 -38
-35 -71 -115 -71 -173 0 -61 39 -145 81 -176 l29 -22 -42 -14 c-106 -36 -220
-141 -268 -246 l-27 -59 -7 62 c-42 370 72 714 323 974 193 200 519 350 751
343 l55 -1 3 -573z m-798 -136 c-14 -13 -27 -21 -30 -19 -4 4 40 42 50 43 2 0
-7 -11 -20 -24z m220 6 c55 -27 93 -90 93 -154 0 -65 -21 -108 -70 -145 -32
-25 -45 -28 -108 -28 -62 0 -76 3 -107 27 -101 77 -87 246 24 301 44 22 124
21 168 -1z m50 -316 c0 -3 -8 -12 -17 -22 -16 -15 -16 -17 3 -31 18 -14 18
-15 -5 -8 -13 4 -30 8 -37 9 -32 5 -25 22 7 18 4 -1 15 8 24 18 18 20 25 24
25 16z m-199 -41 l34 -14 -32 -1 c-17 0 -39 -3 -48 -6 -15 -6 -15 -4 -4 15 8
11 14 21 15 21 1 0 17 -7 35 -15z m214 -66 c105 -39 219 -150 246 -238 l11
-38 -283 -283 -283 -283 -33 39 c-100 117 -219 332 -230 413 -7 51 22 156 58
212 63 99 172 176 281 199 61 13 168 3 233 -21z m-395 -23 c0 -2 -7 -7 -16
-10 -8 -3 -12 -2 -9 4 6 10 25 14 25 6z m933 -11 c-3 -9 -8 -14 -10 -11 -3 3
-2 9 2 15 9 16 15 13 8 -4z m397 -440 c217 -217 396 -401 398 -409 6 -25 -149
-136 -286 -205 l-81 -41 -11 39 c-32 121 -138 233 -264 281 l-29 11 22 16 c30
20 71 109 71 152 0 161 -165 269 -307 200 -133 -64 -163 -246 -58 -344 l27
-24 -37 -15 c-21 -9 -39 -16 -41 -16 -2 0 -25 -15 -52 -34 -74 -54 -140 -146
-162 -226 l-11 -40 -100 51 c-89 46 -239 148 -268 183 -8 9 90 112 392 414
221 221 402 402 402 402 1 0 178 -178 395 -395z m-319 368 c13 -16 12 -17 -3
-4 -17 13 -22 21 -14 21 2 0 10 -8 17 -17z m159 -158 c13 -14 21 -25 18 -25
-2 0 -15 11 -28 25 -13 14 -21 25 -18 25 2 0 15 -11 28 -25z m-451 12 c-2 -1
-13 -9 -24 -17 -19 -14 -19 -14 -6 3 7 9 18 17 24 17 6 0 8 -1 6 -3z m-909
-18 c0 -5 -4 -9 -10 -9 -5 0 -7 -6 -5 -12 3 -7 1 -26 -4 -43 l-8 -30 -11 40
c-17 56 -15 63 13 63 14 0 25 -4 25 -9z m1411 -46 c13 -16 12 -17 -3 -4 -17
13 -22 21 -14 21 2 0 10 -8 17 -17z m-200 -176 c94 -63 91 -208 -7 -264 -133
-77 -280 58 -220 201 33 80 153 113 227 63z m464 -87 c10 -11 16 -20 13 -20
-3 0 -13 9 -23 20 -10 11 -16 20 -13 20 3 0 13 -9 23 -20z m160 -160 c10 -11
16 -20 13 -20 -3 0 -13 9 -23 20 -10 11 -16 20 -13 20 3 0 13 -9 23 -20z
m-769 -60 c16 0 17 -2 4 -10 -8 -5 -25 -10 -36 -10 -18 0 -20 5 -16 27 4 23 6
24 17 10 7 -10 21 -17 31 -17z m169 1 c-1 -11 -5 -24 -10 -28 -4 -5 -5 -2 -1
5 5 8 -1 12 -21 13 l-28 1 28 10 c15 5 24 14 21 20 -4 6 -3 8 3 5 5 -3 9 -15
8 -26z m3 -59 c123 -39 215 -134 251 -260 l9 -30 -86 -21 c-201 -48 -374 -48
-574 0 l-86 21 9 30 c25 88 83 168 157 215 98 63 210 79 320 45z m-938 -23 c0
-14 -17 -10 -23 5 -4 10 -1 13 9 9 7 -3 14 -9 14 -14z m1131 -66 c13 -16 12
-17 -3 -4 -10 7 -18 15 -18 17 0 8 8 3 21 -13z m369 -77 c0 -2 -8 -10 -17 -17
-16 -13 -17 -12 -4 4 13 16 21 21 21 13z m-1063 -128 c0 -13 -1 -18 -4 -11 -2
7 -12 10 -21 7 -14 -5 -13 -2 2 10 11 9 20 16 21 16 0 0 1 -10 2 -22z m796 -9
c-30 -12 -34 -10 -21 10 10 16 15 17 26 8 12 -9 11 -12 -5 -18z"/>
<path d="M2270 2970 c-9 -6 -10 -10 -3 -10 6 0 15 5 18 10 8 12 4 12 -15 0z"/>
<path d="M2139 2893 c-13 -16 -12 -17 4 -4 9 7 17 15 17 17 0 8 -8 3 -21 -13z"/>
<path d="M1969 2743 c-12 -16 -12 -17 2 -6 9 7 20 9 24 5 5 -4 5 -1 1 6 -9 16
-11 15 -27 -5z"/>
<path d="M1879 2653 c-13 -16 -12 -17 4 -4 16 13 21 21 13 21 -2 0 -10 -8 -17
-17z"/>
<path d="M1885 2471 c-6 -11 13 -26 22 -17 4 3 1 6 -6 6 -7 0 -9 5 -6 10 3 6
4 10 1 10 -3 0 -7 -4 -11 -9z"/>
<path d="M1857 2423 c3 -7 6 -13 8 -13 2 0 5 6 8 13 3 8 -1 14 -8 14 -7 0 -11
-6 -8 -14z"/>
<path d="M1859 2093 c-13 -16 -12 -17 4 -4 9 7 17 15 17 17 0 8 -8 3 -21 -13z"/>
<path d="M1700 1986 c7 -7 13 -7 20 0 6 6 3 10 -10 10 -13 0 -16 -4 -10 -10z"/>
<path d="M2460 1985 c5 -7 6 -16 2 -21 -4 -5 -3 -5 2 -1 15 12 15 34 0 34 -9
0 -11 -4 -4 -12z"/>
<path d="M2524 1902 c4 -3 14 -7 22 -8 9 -1 13 0 10 4 -4 3 -14 7 -22 8 -9 1
-13 0 -10 -4z"/>
<path d="M2610 1900 c-12 -7 -10 -9 7 -7 12 0 19 5 17 9 -6 10 -6 10 -24 -2z"/>
<path d="M2164 2350 c0 -13 4 -16 10 -10 7 7 7 13 0 20 -6 6 -10 3 -10 -10z"/>
<path d="M1984 2219 c-3 -6 -2 -15 3 -20 5 -5 9 -1 9 11 0 23 -2 24 -12 9z"/>
<path d="M1827 1874 c4 -12 3 -15 -5 -10 -7 4 -12 3 -12 -2 0 -6 6 -12 13 -15
15 -6 21 29 6 38 -5 4 -6 -2 -2 -11z"/>
<path d="M2330 1866 c0 -2 8 -10 18 -17 15 -13 16 -12 3 4 -13 16 -21 21 -21
13z"/>
<path d="M2450 1735 c-7 -9 -8 -15 -2 -15 5 0 12 7 16 15 3 8 4 15 2 15 -2 0
-9 -7 -16 -15z"/>
<path d="M2374 1654 c-18 -14 -18 -15 4 -4 12 6 22 13 22 15 0 8 -5 6 -26 -11z"/>
<path d="M2260 1586 c7 -7 13 -7 20 0 6 6 3 10 -10 10 -13 0 -16 -4 -10 -10z"/>
<path d="M2206 1511 c-3 -4 4 -7 14 -6 27 2 33 10 10 12 -11 1 -22 -2 -24 -6z"/>
<path d="M2171 1457 c-8 -10 -7 -14 2 -14 8 0 14 6 14 14 0 7 -1 13 -2 13 -2
0 -8 -6 -14 -13z"/>
<path d="M2120 1408 c-15 -21 -17 -28 -6 -19 16 13 41 51 33 51 -2 0 -14 -15
-27 -32z"/>
<path d="M2085 1409 c-4 -6 -5 -12 -2 -15 2 -3 7 2 10 11 7 17 1 20 -8 4z"/>
<path d="M2015 1351 c-3 -5 -2 -12 3 -15 5 -3 9 1 9 9 0 17 -3 19 -12 6z"/>
<path d="M2049 1358 c-8 -27 -5 -36 9 -30 10 4 12 7 4 10 -7 2 -10 8 -6 13 3
5 3 9 0 9 -3 0 -6 -1 -7 -2z"/>
<path d="M1964 1248 l-19 -23 23 19 c21 18 27 26 19 26 -2 0 -12 -10 -23 -22z"/>
<path d="M2617 1702 c-15 -16 -15 -19 -2 -19 8 0 13 3 10 5 -3 3 0 11 6 19 17
20 5 16 -14 -5z"/>
<path d="M2970 1659 c0 -5 5 -7 10 -4 6 3 10 8 10 11 0 2 -4 4 -10 4 -5 0 -10
-5 -10 -11z"/>
<path d="M2539 1623 c-13 -16 -12 -17 4 -4 9 7 17 15 17 17 0 8 -8 3 -21 -13z"/>
<path d="M3050 1551 c0 -6 4 -13 10 -16 6 -3 7 1 4 9 -7 18 -14 21 -14 7z"/>
<path d="M3016 1483 c-6 -14 -5 -15 5 -6 7 7 10 15 7 18 -3 3 -9 -2 -12 -12z"/>
<path d="M3160 1481 c0 -10 19 -25 25 -20 1 2 -3 10 -11 17 -8 7 -14 8 -14 3z"/>
<path d="M3135 1450 c-3 -6 1 -7 9 -4 18 7 21 14 7 14 -6 0 -13 -4 -16 -10z"/>
<path d="M3395 1219 c-4 -6 -5 -12 -2 -15 2 -3 7 2 10 11 7 17 1 20 -8 4z"/>
<path d="M2567 1209 c7 -7 15 -10 18 -7 3 3 -2 9 -12 12 -14 6 -15 5 -6 -5z"/>
<path d="M2483 1185 c0 -8 4 -12 9 -9 5 3 6 10 3 15 -9 13 -12 11 -12 -6z"/>
<path d="M3186 1033 c-6 -14 -5 -15 5 -6 7 7 10 15 7 18 -3 3 -9 -2 -12 -12z"/>
<path d="M2209 993 c-13 -16 -12 -17 4 -4 16 13 21 21 13 21 -2 0 -10 -8 -17
-17z"/>
<path d="M3262 951 c-11 -7 -11 -9 0 -14 9 -3 15 1 15 9 0 8 -1 14 -1 14 -1 0
-7 -4 -14 -9z"/>
<path d="M2683 1456 c0 -15 22 -15 34 0 4 5 4 6 -1 2 -5 -4 -14 -3 -21 2 -8 7
-12 5 -12 -4z"/>
<path d="M2837 1449 c7 -7 15 -10 18 -7 3 3 -2 9 -12 12 -14 6 -15 5 -6 -5z"/>
<path d="M2622 1064 c-7 -8 -8 -14 -3 -14 10 0 25 19 20 25 -2 1 -10 -3 -17
-11z"/>
<path d="M2955 1052 c3 -3 19 -6 35 -7 16 -1 27 1 24 4 -3 3 -19 6 -35 7 -16
1 -27 -1 -24 -4z"/>
<path d="M3160 3180 c0 -5 5 -10 11 -10 5 0 7 5 4 10 -3 6 -8 10 -11 10 -2 0
-4 -4 -4 -10z"/>
<path d="M2962 3145 l-32 -27 0 -546 0 -547 388 -387 c355 -356 390 -388 421
-388 43 0 73 32 128 136 96 181 143 372 143 579 0 389 -178 747 -489 980 -136
103 -349 200 -482 220 -40 6 -49 4 -77 -20z m148 -56 c332 -91 628 -360 761
-691 51 -127 84 -296 83 -428 0 -110 -5 -180 -11 -180 -5 1 -18 22 -30 48 -39
84 -171 196 -255 217 -16 4 -28 9 -28 12 0 2 13 15 29 29 64 53 90 175 56 257
-53 126 -196 181 -320 123 -60 -28 -87 -56 -114 -116 -41 -91 -14 -215 60
-273 27 -21 30 -27 15 -27 -34 0 -127 -52 -180 -101 l-53 -48 -67 67 -66 68 0
519 c0 286 0 526 0 533 0 17 34 15 120 -9z m501 -246 c13 -16 12 -17 -3 -4
-10 7 -18 15 -18 17 0 8 8 3 21 -13z m169 -203 c6 -11 8 -20 6 -20 -3 0 -10 9
-16 20 -6 11 -8 20 -6 20 3 0 10 -9 16 -20z m-181 -228 c108 -79 97 -247 -20
-307 -37 -20 -123 -19 -166 1 -111 53 -126 231 -24 303 58 42 155 43 210 3z
m-291 -227 c-3 -3 -9 2 -12 12 -6 14 -5 15 5 6 7 -7 10 -15 7 -18z m127 -119
c14 5 17 4 10 -3 -5 -6 -22 -13 -36 -17 -24 -5 -26 -3 -25 24 1 29 1 29 16 9
11 -14 22 -18 35 -13z m172 12 c0 -7 4 -22 8 -33 5 -13 4 -16 -2 -7 -6 7 -18
10 -29 6 -16 -5 -16 -4 -4 5 12 8 12 11 1 11 -11 0 -11 3 -1 15 15 18 27 19
27 3z m-36 -58 c157 -29 289 -148 333 -301 16 -55 16 -57 -10 -130 -33 -94
-123 -268 -144 -279 -13 -7 -76 51 -300 275 l-284 285 39 40 c64 66 181 115
281 119 17 1 56 -4 85 -9z m-421 -150 c0 -5 -6 -12 -12 -16 -7 -4 -10 -4 -6 1
4 4 3 14 -4 22 -8 11 -7 12 6 7 9 -3 16 -10 16 -14z m817 -110 c0 -16 -4 -27
-9 -24 -4 3 -8 -2 -8 -10 0 -21 -15 -28 -17 -8 -1 9 -3 26 -5 37 -2 11 2 20 9
20 6 0 15 3 19 8 11 10 11 10 11 -23z m-626 -97 c13 -16 12 -17 -3 -4 -17 13
-22 21 -14 21 2 0 10 -8 17 -17z"/>
<path d="M3763 2494 c0 -7 4 -11 8 -8 4 2 9 -2 12 -8 3 -7 5 -4 4 8 -1 22 -24
30 -24 8z"/>
<path d="M3676 2468 c3 -5 10 -6 15 -3 13 9 11 12 -6 12 -8 0 -12 -4 -9 -9z"/>
<path d="M3252 2064 c-7 -8 -8 -14 -3 -14 10 0 25 19 20 25 -2 1 -10 -3 -17
-11z"/>
<path d="M3736 2068 c3 -5 10 -6 15 -3 13 9 11 12 -6 12 -8 0 -12 -4 -9 -9z"/>
<path d="M3860 1991 c0 -6 4 -13 10 -16 6 -3 7 1 4 9 -7 18 -14 21 -14 7z"/>
<path d="M3606 2193 c-6 -14 -5 -15 5 -6 7 7 10 15 7 18 -3 3 -9 -2 -12 -12z"/>
<path d="M3683 1935 c0 -8 4 -12 9 -9 5 3 6 10 3 15 -9 13 -12 11 -12 -6z"/>
<path d="M3770 1881 c0 -6 4 -13 10 -16 6 -3 7 1 4 9 -7 18 -14 21 -14 7z"/>
<path d="M3231 1864 c0 -11 3 -14 6 -6 3 7 2 16 -1 19 -3 4 -6 -2 -5 -13z"/>
<path d="M3771 1443 c-1 -17 16 -25 25 -12 4 7 3 9 -4 5 -5 -3 -13 0 -15 6 -4
9 -6 10 -6 1z"/>
<path d="M3650 1436 c0 -2 8 -10 18 -17 15 -13 16 -12 3 4 -13 16 -21 21 -21
13z"/>
<path d="M2084 3032 c3 -5 0 -13 -6 -15 -9 -4 -10 -6 -1 -6 17 -1 25 16 12 25
-7 4 -9 3 -5 -4z"/>
<path d="M3496 3008 c3 -5 10 -6 15 -3 13 9 11 12 -6 12 -8 0 -12 -4 -9 -9z"/>
<path d="M3906 2543 c-6 -14 -5 -15 5 -6 7 7 10 15 7 18 -3 3 -9 -2 -12 -12z"/>
<path d="M1611 2493 c-1 -17 16 -25 25 -12 4 7 3 9 -4 5 -5 -3 -13 0 -15 6 -4
9 -6 10 -6 1z"/>
<path d="M2980 1890 c0 -5 5 -10 11 -10 5 0 7 5 4 10 -3 6 -8 10 -11 10 -2 0
-4 -4 -4 -10z"/>
<path d="M3110 1780 c-12 -7 -10 -9 7 -7 12 0 19 5 17 9 -6 10 -6 10 -24 -2z"/>
<path d="M3196 1673 c-6 -14 -5 -15 5 -6 7 7 10 15 7 18 -3 3 -9 -2 -12 -12z"/>
<path d="M3346 1507 c3 -10 9 -15 12 -12 3 3 0 11 -7 18 -10 9 -11 8 -5 -6z"/>
<path d="M3501 1364 c0 -11 3 -14 6 -6 3 7 2 16 -1 19 -3 4 -6 -2 -5 -13z"/>
<path d="M3590 1300 c-8 -5 -12 -12 -9 -15 4 -3 12 1 19 10 14 17 11 19 -10 5z"/>
<path d="M3606 1282 c-3 -5 1 -9 9 -9 8 0 12 4 9 9 -3 4 -7 8 -9 8 -2 0 -6 -4
-9 -8z"/>
<path d="M1850 1071 c0 -10 19 -25 25 -20 1 2 -3 10 -11 17 -8 7 -14 8 -14 3z"/>
<path d="M1870 1076 c0 -2 7 -7 16 -10 8 -3 12 -2 9 4 -6 10 -25 14 -25 6z"/>
<path d="M1925 1031 c-3 -5 -2 -12 3 -15 5 -3 9 1 9 9 0 17 -3 19 -12 6z"/>
<path d="M1930 986 c7 -7 13 -7 20 0 6 6 3 10 -10 10 -13 0 -16 -4 -10 -10z"/>
</g>
</svg>
